<?xml version="1.0" encoding="UTF-8"?>
<svg version="1.1" xmlns="http://www.w3.org/2000/svg" width="500" height="500">
<path d="M0 0 C-0.03480469 0.61488281 -0.06960937 1.22976562 -0.10546875 1.86328125 C-0.14607422 3.07564453 -0.14607422 3.07564453 -0.1875 4.3125 C-0.22230469 5.11300781 -0.25710937 5.91351563 -0.29296875 6.73828125 C-0.18002206 9.0622454 -0.18002206 9.0622454 1.328125 10.77734375 C3.86927703 12.6357096 5.9326135 12.2503989 9 12 C11.26566343 11.56058477 11.26566343 11.56058477 13 11 C13.495 13.97 13.495 13.97 14 17 C8.25 21 8.25 21 6 21 C6.83733893 28.38225339 9.27268597 33.19541989 15 38 C17.38747712 39.417057 19.80557409 40.58801356 22.328125 41.74609375 C33.42136652 46.95213253 44.03280387 54.73753271 48.625 66.5 C51.5125193 77.55083321 50.3161463 89.68317823 50 101 C45.96328473 103.25397227 42.40794692 103.26724262 37.875 103.1875 C37.11960937 103.18032959 36.36421875 103.17315918 35.5859375 103.16577148 C19.93971845 102.93971845 19.93971845 102.93971845 18 101 C17.87942662 99.59455489 17.82049126 98.18369497 17.7890625 96.7734375 C17.76070313 95.90589844 17.73234375 95.03835937 17.703125 94.14453125 C17.6517081 92.32180215 17.607249 90.49886127 17.5703125 88.67578125 C17.26463836 80.02775031 15.1241222 74.40249139 9 68 C6.72851607 66.20548047 4.41257749 64.608385 2 63 C-7.19694532 69.09855112 -7.19694532 69.09855112 -12.55078125 78.28173828 C-12.99642195 80.97834891 -13.20465985 83.57097633 -13.31640625 86.30078125 C-13.35830078 87.27724609 -13.40019531 88.25371094 -13.44335938 89.25976562 C-13.48267578 90.26716797 -13.52199219 91.27457031 -13.5625 92.3125 C-13.62727539 93.85260742 -13.62727539 93.85260742 -13.69335938 95.42382812 C-13.79906825 97.94909569 -13.90116468 100.47445562 -14 103 C-17.35414799 103.02929977 -20.70826253 103.0468989 -24.0625 103.0625 C-25.00544922 103.07087891 -25.94839844 103.07925781 -26.91992188 103.08789062 C-32.0630768 103.10581103 -36.93258427 102.89259611 -42 102 C-41.67 102.66 -41.34 103.32 -41 104 C-37.07871431 104.88170417 -33.06001207 105.1289802 -29.0625 105.5 C-27.95841797 105.63664062 -26.85433594 105.77328125 -25.71679688 105.9140625 C-18.43928238 106.58464269 -14.17706101 105.78943141 -8.19824219 101.50708008 C-1.43925291 96.87322393 7.01465525 95.84342461 15 96 C15.95685425 100.21015871 16.13181214 102.25712373 14 106 C14.85549438 105.89389404 14.85549438 105.89389404 15.72827148 105.78564453 C22.85326685 104.97941556 29.89698855 104.84990189 37.0625 104.875 C38.20138672 104.87113281 39.34027344 104.86726563 40.51367188 104.86328125 C41.59326172 104.86457031 42.67285156 104.86585938 43.78515625 104.8671875 C45.25287476 104.86887939 45.25287476 104.86887939 46.75024414 104.87060547 C49 105 49 105 50 106 C50.1603556 109.02807044 50.25960448 112.03585454 50.31640625 115.06640625 C50.33718735 115.97502914 50.35796844 116.88365204 50.37937927 117.81980896 C50.44497672 120.73395946 50.5038068 123.64820304 50.5625 126.5625 C50.60567554 128.53321291 50.64928951 130.50391626 50.69335938 132.47460938 C50.80066843 137.31630988 50.90190675 142.15810437 51 147 C55.38301007 147.29546758 55.38301007 147.29546758 59.1875 145.4375 C61.20972784 142.94235226 61.20972784 142.94235226 62.4375 139.3125 C62.953125 138.219375 63.46875 137.12625 64 136 C66.6875 135.0625 66.6875 135.0625 69 135 C68.979375 136.051875 68.95875 137.10375 68.9375 138.1875 C68.98896802 141.32704904 69.26517187 143.96883396 70 147 C78.74780621 148.42718381 78.74780621 148.42718381 87 146 C88.03048118 143.50492004 88.64193407 141.0512995 89.24609375 138.421875 C90.27814354 135.10648191 92.06889733 133.7428178 95 132 C96.58116705 134.56939645 97.00150161 135.9279226 96.9375 139 C96.82524073 141.96028536 96.82524073 141.96028536 97.9375 144.375 C101.2421453 146.97865993 104.94292086 146.46960499 109 146 C109.66 145.67 110.32 145.34 111 145 C110.62824787 139.23143247 109.70690295 135.17842303 107 130 C106.4375 127.5 106.4375 127.5 107 125 C108.81752662 122.7820907 110.83493528 120.8751007 113 119 C116 120 116 120 116.9140625 121.70703125 C117.14867187 122.40183594 117.38328125 123.09664063 117.625 123.8125 C117.86476563 124.49957031 118.10453125 125.18664062 118.3515625 125.89453125 C120.73114766 133.6210156 121.76042959 142.55288402 118.73046875 150.20703125 C117.28709152 152.66182609 115.91482281 154.89171063 114 157 C113.34 157 112.68 157 112 157 C112 157.66 112 158.32 112 159 C107.46844682 161.33886616 102.99781654 161.66133678 98 161 C96.65724831 160.01268258 95.32267727 159.01405257 94 158 C90.27013324 158.13563152 87.80312925 158.4573451 84.6875 160.5625 C80.54986672 162.77565269 76.59218778 162.67447758 72 162 C69.40787076 160.91012748 67.36844142 159.56317134 65 158 C62.73014106 157.23959428 62.73014106 157.23959428 61 157 C61 157.66 61 158.32 61 159 C55.89081206 161.51467844 51.73333352 162.47385058 46 162.375 C44.99066406 162.39240234 44.99066406 162.39240234 43.9609375 162.41015625 C38.86319148 162.38063262 35.43083384 161.33635779 31 159 C26.1907249 153.05168606 25.85066022 148.38090335 25.90234375 140.953125 C25.90335083 140.26911621 25.90435791 139.58510742 25.90539551 138.88037109 C25.9106087 136.33689689 25.92456994 133.79344668 25.9375 131.25 C25.958125 125.5575 25.97875 119.865 26 114 C14.12 114 2.24 114 -10 114 C-10 114.99 -10 115.98 -10 117 C-8.01119714 118.71716267 -8.01119714 118.71716267 -5.4375 120.3125 C-0.98865109 123.29949386 3.08316255 126.33860847 7 130 C7 130.66 7 131.32 7 132 C7.598125 132.165 8.19625 132.33 8.8125 132.5 C12.24711563 134.855165 12.99731822 138.06805501 14 142 C14.78224671 147.47572697 13.59615756 150.7560588 10.5625 155.203125 C7.23384368 159.03107977 2.94955641 161.0266659 -2 162 C-5.6430475 162.22102715 -9.28839542 162.18513199 -12.9375 162.1875 C-13.92685547 162.19974609 -14.91621094 162.21199219 -15.93554688 162.22460938 C-17.37317383 162.22750977 -17.37317383 162.22750977 -18.83984375 162.23046875 C-20.14489868 162.23663208 -20.14489868 162.23663208 -21.47631836 162.24291992 C-24.28532627 161.97253559 -26.4398192 161.15881263 -29 160 C-29.66 160.66 -30.32 161.32 -31 162 C-39.20955956 164.07328999 -45.68202447 161.92671858 -53 158 C-53.474375 158.65226563 -53.94875 159.30453125 -54.4375 159.9765625 C-58.17844848 162.93054316 -61.3727023 162.51544514 -66 162.375 C-66.80695313 162.37371094 -67.61390625 162.37242187 -68.4453125 162.37109375 C-72.50659396 162.31077769 -75.4764625 162.21736594 -79 160 C-80.25 157.375 -80.25 157.375 -81 155 C-82.60875 155.7425 -82.60875 155.7425 -84.25 156.5 C-89.73811075 158.54459028 -95.21770019 158.77263489 -101 158 C-104.07365786 156.19196596 -105.43019732 155.13960536 -107 152 C-107.52464755 146.29950253 -107.70841495 141.63551869 -104 137 C-102.9790625 135.6078125 -102.9790625 135.6078125 -101.9375 134.1875 C-101.298125 133.465625 -100.65875 132.74375 -100 132 C-99.34 132 -98.68 132 -98 132 C-98 131.34 -98 130.68 -98 130 C-96.06629769 128.99267601 -94.12789694 127.99436712 -92.1875 127 C-91.10855469 126.443125 -90.02960938 125.88625 -88.91796875 125.3125 C-86 124 -86 124 -83 124 C-83 122.02 -83 120.04 -83 118 C-80.69 116.68 -78.38 115.36 -76 114 C-74.25835163 115.74164837 -74.78787388 118.16715742 -74.71875 120.5390625 C-74.66267578 122.24642578 -74.66267578 122.24642578 -74.60546875 123.98828125 C-74.55326172 125.78845703 -74.55326172 125.78845703 -74.5 127.625 C-74.24346498 137.85743152 -74.24346498 137.85743152 -73 148 C-70.5821288 148.10826289 -68.16912444 148.18739789 -65.75 148.25 C-64.72712891 148.30027344 -64.72712891 148.30027344 -63.68359375 148.3515625 C-60.38122515 148.41568616 -58.37952352 148.25967398 -55.625 146.375 C-53.67818046 143.52964837 -52.9810303 141.1127394 -52.25 137.75 C-52.00765625 136.67234375 -51.7653125 135.5946875 -51.515625 134.484375 C-51.34546875 133.66453125 -51.1753125 132.8446875 -51 132 C-49.35 131.67 -47.7 131.34 -46 131 C-46 128.69 -46 126.38 -46 124 C-46.7425 124.061875 -47.485 124.12375 -48.25 124.1875 C-51.47519908 123.96760006 -52.69723426 123.21747812 -55 121 C-55 120.34 -55 119.68 -55 119 C-55.66 119 -56.32 119 -57 119 C-57 117.35 -57 115.7 -57 114 C-55.02 113.01 -55.02 113.01 -53 112 C-53 111.34 -53 110.68 -53 110 C-48.25 108.875 -48.25 108.875 -46 110 C-45.67 108.35 -45.34 106.7 -45 105 C-44.34 105 -43.68 105 -43 105 C-43 104.34 -43 103.68 -43 103 C-43.99 102.67 -44.98 102.34 -46 102 C-49.05576849 89.99871568 -48.55588166 73.41790778 -42.640625 62.48828125 C-41.18577251 60.21976126 -39.6767176 58.10941892 -38 56 C-37.28199219 55.02933594 -36.56398438 54.05867188 -35.82421875 53.05859375 C-32.71272299 49.35465426 -28.88047602 47.2497216 -24.6875 44.9375 C-23.23244118 44.11439702 -21.77801152 43.29018081 -20.32421875 42.46484375 C-19.61144775 42.06152832 -18.89867676 41.65821289 -18.16430664 41.24267578 C-15.95907864 39.97650426 -13.77331266 38.68607229 -11.6015625 37.36328125 C-10.96428223 36.97567627 -10.32700195 36.58807129 -9.67041016 36.1887207 C-4.33219523 32.38986533 -2.75512381 25.98337661 -1 20 C-1.62390625 19.70222656 -2.2478125 19.40445313 -2.890625 19.09765625 C-5.61822257 17.67829529 -6.58512465 16.75900693 -8 14 C-8.72007975 9.36719775 -8.59751632 6.04565356 -6.25 1.9375 C-4 0 -4 0 0 0 Z M-2.39453125 39.765625 C-3.19246094 40.58546875 -3.99039063 41.4053125 -4.8125 42.25 C-7.95820871 45.29681667 -10.36371885 47.49094119 -14.5625 48.8125 C-18.05657109 49.56675705 -18.05657109 49.56675705 -18.8984375 51.83984375 C-19.21037693 54.07386155 -19.21037693 54.07386155 -17.78515625 55.921875 C-17.21667969 56.52515625 -16.64820313 57.1284375 -16.0625 57.75 C-15.49660156 58.36359375 -14.93070312 58.9771875 -14.34765625 59.609375 C-13.90292969 60.06828125 -13.45820313 60.5271875 -13 61 C-8.61537866 60.49890042 -6.1999003 59.01704885 -3 56 C-3 55.34 -3 54.68 -3 54 C0.11771927 52.39660152 1.39011689 51.81025859 4.8125 52.875 C5.534375 53.24625 6.25625 53.6175 7 54 C7 54.66 7 55.32 7 56 C9.01791336 57.58969247 9.01791336 57.58969247 11.5 59.125 C12.3353125 59.66382813 13.170625 60.20265625 14.03125 60.7578125 C14.6809375 61.16773438 15.330625 61.57765625 16 62 C20.99241004 57.9389783 20.99241004 57.9389783 23.5 52.3125 C20.58430397 47.81746862 14.89546181 46.6318206 10 45 C10 44.34 10 43.68 10 43 C8.35 42.34 6.7 41.68 5 41 C5 40.34 5 39.68 5 39 C1.62085307 37.82360071 0.56098004 37.58635729 -2.39453125 39.765625 Z M-31.6953125 60.43359375 C-39.17469259 70.91698715 -39.72942435 80.4314573 -39 93 C-37.87100701 94.35435584 -37.87100701 94.35435584 -34.91015625 94.1328125 C-33.64042969 94.13023437 -32.37070313 94.12765625 -31.0625 94.125 C-29.16177734 94.12886719 -29.16177734 94.12886719 -27.22265625 94.1328125 C-24.10845111 94.22506069 -24.10845111 94.22506069 -22 93 C-21.79219459 90.67257946 -21.68525145 88.33590223 -21.625 86 C-21.4044059 80.27337723 -20.58057264 75.81053621 -17.64453125 70.83203125 C-16.766081 68.95337974 -16.766081 68.95337974 -17.76171875 66.90234375 C-19.26792138 64.58839839 -20.92370881 62.81675479 -23 61 C-23.66 61 -24.32 61 -25 61 C-25 60.34 -25 59.68 -25 59 C-28.65710737 58.61899784 -28.65710737 58.61899784 -31.6953125 60.43359375 Z M25.4375 62.25 C24.81746094 62.85328125 24.19742188 63.4565625 23.55859375 64.078125 C21.81643551 66.2263502 21.12613107 67.23520695 21 70 C21.44988281 70.87914062 21.89976562 71.75828125 22.36328125 72.6640625 C24.44583668 76.90869816 24.78224118 80.71266459 25.1875 85.375 C25.26935547 86.20644531 25.35121094 87.03789062 25.43554688 87.89453125 C25.63428563 89.92868087 25.81861584 91.96422949 26 94 C31.28 94 36.56 94 42 94 C43.34580037 76.41716553 43.34580037 76.41716553 36 61 C31.06336449 58.51301116 29.32944619 58.38242926 25.4375 62.25 Z M-23 113 C-22 115 -22 115 -22 115 Z M35 113 C34.95037347 117.03845412 34.91417368 121.07678887 34.89013672 125.11547852 C34.88011074 126.48790583 34.86648644 127.86031195 34.84912109 129.23266602 C34.82472373 131.21100527 34.81455516 133.18950367 34.8046875 135.16796875 C34.79421387 136.35672607 34.78374023 137.5454834 34.77294922 138.77026367 C34.99904553 141.98642288 35.46650087 144.17255003 37 147 C39.54775306 147.89386164 39.54775306 147.89386164 42 148 C43.62823007 136.3518926 42.6553773 124.69276323 42 113 C39.69 113 37.38 113 35 113 Z M-39 114 C-39.04970693 118.02014331 -39.08586387 122.04016578 -39.10986328 126.06054688 C-39.1198759 127.4261385 -39.13349005 128.79170894 -39.15087891 130.15722656 C-39.17533573 132.12815912 -39.1854572 134.09925284 -39.1953125 136.0703125 C-39.20578613 137.25383301 -39.21625977 138.43735352 -39.22705078 139.65673828 C-38.99409659 143.08692611 -38.23025564 145.80303811 -37 149 C-33.70924004 148.62095792 -33.70924004 148.62095792 -31 147 C-30.97068642 144.63359486 -31.00428035 142.30084299 -31.0859375 139.9375 C-31.10717682 139.23101318 -31.12841614 138.52452637 -31.15029907 137.79663086 C-31.1966335 136.30021268 -31.24556747 134.80387311 -31.296875 133.30761719 C-31.37466369 131.00993367 -31.44181624 128.71211154 -31.5078125 126.4140625 C-31.55404801 124.96352114 -31.60090218 123.51299934 -31.6484375 122.0625 C-31.67821182 121.0250061 -31.67821182 121.0250061 -31.70858765 119.96655273 C-31.56105772 116.69980826 -31.56105772 116.69980826 -33 114 C-34.99958364 113.95919217 -37.00045254 113.95745644 -39 114 Z M-21 124 C-22.22117194 127.66351581 -22.18406354 131.06052972 -22.1875 134.875 C-22.19974609 135.58269531 -22.21199219 136.29039062 -22.22460938 137.01953125 C-22.23599137 141.09428707 -22.04600524 144.42458885 -20 148 C-16.43450163 149.18849946 -13.50898083 149.16877998 -9.75 149.1875 C-8.46609375 149.20167969 -7.1821875 149.21585938 -5.859375 149.23046875 C-1.85171124 148.9911447 1.210452 148.24191146 5 147 C3.48384206 138.9312514 -4.98655985 134.4605988 -11.3125 130.125 C-16.02468195 126.84272641 -16.02468195 126.84272641 -21 124 Z M-89.4375 136.1875 C-90.92056641 136.79658203 -90.92056641 136.79658203 -92.43359375 137.41796875 C-95.46571608 139.28708525 -96.05424291 140.63038642 -97 144 C-95.79141448 145.4238996 -95.79141448 145.4238996 -92.25 145.3125 C-89.10885625 145.25600461 -87.8952067 144.94542016 -85 143.4375 C-82.33870305 140.19404435 -82.60746671 138.08234623 -83 134 C-85.20576643 134 -87.45592609 135.35003378 -89.4375 136.1875 Z " fill="#CFAA4B" transform="translate(247,142)"/>
<path d="M0 0 C1.69213943 2.95955861 2.29521319 5.15699917 2.3125 8.5625 C2.32925781 9.32691406 2.34601563 10.09132813 2.36328125 10.87890625 C1.91113901 13.51883352 1.08368259 14.36929188 -1 16 C-3.1875 16.6875 -3.1875 16.6875 -5 17 C-5 18.32 -5 19.64 -5 21 C-5.969375 21.12375 -6.93875 21.2475 -7.9375 21.375 C-8.948125 21.58125 -9.95875 21.7875 -11 22 C-11.33 22.66 -11.66 23.32 -12 24 C-18.93 24 -25.86 24 -33 24 C-33.33 22.35 -33.66 20.7 -34 19 C-36.31 19 -38.62 19 -41 19 C-41.66 17.68 -42.32 16.36 -43 15 C-42.38125 14.443125 -41.7625 13.88625 -41.125 13.3125 C-38.93893621 10.93354822 -38.01214301 9.03642904 -37 6 C-35.0625 6.3125 -35.0625 6.3125 -33 7 C-32.67 7.99 -32.34 8.98 -32 10 C-29.64847704 11.17576148 -28.22483241 11.12909897 -25.60546875 11.1328125 C-24.73212891 11.13410156 -23.85878906 11.13539063 -22.95898438 11.13671875 C-22.04439453 11.13285156 -21.12980469 11.12898438 -20.1875 11.125 C-18.83301758 11.13080078 -18.83301758 11.13080078 -17.45117188 11.13671875 C-13.17988135 11.13044206 -9.16058118 11.09902144 -5 10 C-4.855625 9.071875 -4.71125 8.14375 -4.5625 7.1875 C-4 4 -4 4 -3 1 C-2.01 1.33 -1.02 1.66 0 2 C0 1.34 0 0.68 0 0 Z " fill="#CFA43E" transform="translate(256,280)"/>
<path d="M0 0 C2.8125 -0.25 2.8125 -0.25 6 0 C8.04040776 2.04040776 9 3.08325244 9 6 C9.66 6 10.32 6 11 6 C11.66 6.66 12.32 7.32 13 8 C13.99 8.33 14.98 8.66 16 9 C15.979375 7.700625 15.95875 6.40125 15.9375 5.0625 C15.91600546 3.70834367 15.92851801 2.35243917 16 1 C17 0 17 0 19.5 -0.125 C22 0 22 0 23 1 C23.09949077 2.75685674 23.1308026 4.51767333 23.1328125 6.27734375 C23.13474609 7.88319336 23.13474609 7.88319336 23.13671875 9.52148438 C23.13285156 10.64876953 23.12898438 11.77605469 23.125 12.9375 C23.13080078 14.62262695 23.13080078 14.62262695 23.13671875 16.34179688 C23.13542969 17.41365234 23.13414062 18.48550781 23.1328125 19.58984375 C23.13168457 20.57847412 23.13055664 21.56710449 23.12939453 22.58569336 C23 25 23 25 22 27 C18.18796825 26.78216961 17.1247942 26.13727362 14.5 23.25 C14.09265625 22.71375 13.6853125 22.1775 13.265625 21.625 C11.84445481 19.73136151 11.84445481 19.73136151 9.25 17.25 C7 15 7 15 6 13 C6.09539062 13.75925781 6.19078125 14.51851563 6.2890625 15.30078125 C6.39992188 16.29464844 6.51078125 17.28851563 6.625 18.3125 C6.74101562 19.29863281 6.85703125 20.28476562 6.9765625 21.30078125 C7 24 7 24 5 27 C0.125 26.125 0.125 26.125 -1 25 C-1.09934776 23.31614925 -1.1308005 21.62818403 -1.1328125 19.94140625 C-1.13410156 18.91595703 -1.13539063 17.89050781 -1.13671875 16.83398438 C-1.13285156 15.75439453 -1.12898438 14.67480469 -1.125 13.5625 C-1.12886719 12.48677734 -1.13273437 11.41105469 -1.13671875 10.30273438 C-1.13542969 9.27599609 -1.13414062 8.24925781 -1.1328125 7.19140625 C-1.13168457 6.24467041 -1.13055664 5.29793457 -1.12939453 4.32250977 C-1 2 -1 2 0 0 Z " fill="#D4B35E" transform="translate(262,322)"/>
<path d="M0 0 C1.75 1.54296875 1.75 1.54296875 3 3 C3.66 2.34 4.32 1.68 5 1 C5.33 1.33 5.66 1.66 6 2 C5.94921875 4.03125 5.94921875 4.03125 5.6875 6.5 C5.56955078 7.72203125 5.56955078 7.72203125 5.44921875 8.96875 C5.30097656 9.6390625 5.15273438 10.309375 5 11 C4.01 11.495 4.01 11.495 3 12 C2.67 10.35 2.34 8.7 2 7 C-0.97 6.67 -3.94 6.34 -7 6 C-6.88101368 10.42927549 -6.75672255 14.8583621 -6.62768555 19.28735352 C-6.58458874 20.79154499 -6.54289793 22.29577748 -6.50268555 23.80004883 C-6.44436543 25.97229326 -6.38085516 28.14433602 -6.31640625 30.31640625 C-6.27974854 31.62037354 -6.24309082 32.92434082 -6.20532227 34.26782227 C-6.05733986 38.03285965 -6.05733986 38.03285965 -5.41772461 41.85522461 C-5 45 -5 45 -6 47 C-6.66 47 -7.32 47 -8 47 C-8.33 47.99 -8.66 48.98 -9 50 C-12.875 48.25 -12.875 48.25 -14 46 C-14.15733249 43.01236645 -14.25861415 40.04458849 -14.31640625 37.0546875 C-14.33718735 36.1696756 -14.35796844 35.2846637 -14.37937927 34.37283325 C-14.44486598 31.54030259 -14.50375562 28.70767775 -14.5625 25.875 C-14.60568606 23.95702143 -14.64930037 22.03905246 -14.69335938 20.12109375 C-14.80054647 15.41415949 -14.9018164 10.70713033 -15 6 C-17.31 5.34 -19.62 4.68 -22 4 C-22.33 2.68 -22.66 1.36 -23 0 C-16.3881845 -2.2039385 -6.755669 -1.84373466 0 0 Z " fill="#CEA745" transform="translate(288,249)"/>
<path d="M0 0 C1 3 1 3 0 6 C-0.66 6 -1.32 6 -2 6 C-2 6.66 -2 7.32 -2 8 C-3.98 8.99 -3.98 8.99 -6 10 C-5.67 12.97 -5.34 15.94 -5 19 C-3.68 19.33 -2.36 19.66 -1 20 C0.8125 21.8125 0.8125 21.8125 2 24 C1.6875 26.25 1.6875 26.25 1 28 C-1.31 28 -3.62 28 -6 28 C-6 27.34 -6 26.68 -6 26 C-6.66 26 -7.32 26 -8 26 C-9.33333333 24 -10.66666667 22 -12 20 C-12.66 20 -13.32 20 -14 20 C-14.33 22.31 -14.66 24.62 -15 27 C-18.13349732 28.04449911 -18.98968256 27.93423645 -22 27 C-22.88244022 18.58287789 -23.30349429 10.40029654 -22 2 C-21 1 -21 1 -18.4375 0.9375 C-17.2309375 0.9684375 -17.2309375 0.9684375 -16 1 C-15.34 2.65 -14.68 4.3 -14 6 C-13.34 6 -12.68 6 -12 6 C-11.21625 5.195625 -10.4325 4.39125 -9.625 3.5625 C-6.22149343 0.2400293 -4.60331807 0 0 0 Z " fill="#D2B76C" transform="translate(235,321)"/>
<path d="M0 0 C1.98 0 3.96 0 6 0 C7.125 6.625 7.125 6.625 6 10 C10.455 9.505 10.455 9.505 15 9 C15 6.03 15 3.06 15 0 C17.33294775 -0.04241723 19.66702567 -0.04092937 22 0 C24.54413982 2.54413982 23.23435466 9.5170382 23.25 12.9375 C23.270625 14.06091797 23.29125 15.18433594 23.3125 16.34179688 C23.31765625 17.41365234 23.3228125 18.48550781 23.328125 19.58984375 C23.34214355 21.07278931 23.34214355 21.07278931 23.35644531 22.58569336 C23.18000488 23.78077515 23.18000488 23.78077515 23 25 C20 27 20 27 17.875 26.6875 C16 26 16 26 15 25 C14.85884839 22.32941149 14.95752893 19.67567762 15 17 C12.03 17 9.06 17 6 17 C6 19.97 6 22.94 6 26 C3.625 26.625 3.625 26.625 1 27 C-1 25 -1 25 -1.24291992 22.80102539 C-1.23881104 21.90891357 -1.23470215 21.01680176 -1.23046875 20.09765625 C-1.22853516 19.12505859 -1.22660156 18.15246094 -1.22460938 17.15039062 C-1.21236328 16.13138672 -1.20011719 15.11238281 -1.1875 14.0625 C-1.18685547 13.04736328 -1.18621094 12.03222656 -1.18554688 10.98632812 C-1.14048812 3.42146437 -1.14048812 3.42146437 0 0 Z " fill="#DDC584" transform="translate(330,322)"/>
<path d="M0 0 C0.94875 0.04125 1.8975 0.0825 2.875 0.125 C3.33390625 1.0428125 3.7928125 1.960625 4.265625 2.90625 C4.56146484 3.49736572 4.85730469 4.08848145 5.16210938 4.69750977 C5.80585905 5.98615167 6.44777711 7.27571014 7.08789062 8.56616211 C8.44113031 11.28952253 9.80285754 13.99348187 11.265625 16.66015625 C12.93619952 19.71307236 13.91866963 21.60096441 13.625 25.125 C13.3775 25.785 13.13 26.445 12.875 27.125 C10.5625 27.375 10.5625 27.375 7.875 27.125 C5.89889614 25.08075462 4.875 24.0073175 4.875 21.125 C1.575 21.125 -1.725 21.125 -5.125 21.125 C-5.269375 21.929375 -5.41375 22.73375 -5.5625 23.5625 C-6.125 26.125 -6.125 26.125 -7.125 27.125 C-9.12458364 27.16580783 -11.12545254 27.16754356 -13.125 27.125 C-13.455 25.805 -13.785 24.485 -14.125 23.125 C-13.465 23.125 -12.805 23.125 -12.125 23.125 C-11.95484375 22.53074219 -11.7846875 21.93648438 -11.609375 21.32421875 C-5.43821206 0.21752848 -5.43821206 0.21752848 0 0 Z " fill="#CDA63F" transform="translate(191.125,321.875)"/>
<path d="M0 0 C2.375 2 2.375 2 4 4 C3.1875 5.9375 3.1875 5.9375 2 8 C-1.28976808 9.09658936 -2.71303767 8.79953138 -6 8 C-5.67 8.99 -5.34 9.98 -5 11 C-3.15808143 11.76602816 -3.15808143 11.76602816 -1 12.125 C2.92376682 12.92376682 2.92376682 12.92376682 4 14 C4.48932312 17.40048598 4.56101769 20.60692183 4 24 C0.88237107 27.19366866 -1.10098951 27.88762369 -5.5 28.4375 C-9.33956027 27.95755497 -11.7821869 27.14520873 -15 25 C-16 22.9375 -16 22.9375 -16 21 C-14 19 -14 19 -10.4375 18.9375 C-9.303125 18.958125 -8.16875 18.97875 -7 19 C-6.67 18.67 -6.34 18.34 -6 18 C-6.56589844 17.72285156 -7.13179687 17.44570313 -7.71484375 17.16015625 C-8.44832031 16.79792969 -9.18179688 16.43570312 -9.9375 16.0625 C-11.03384766 15.52302734 -11.03384766 15.52302734 -12.15234375 14.97265625 C-14 14 -14 14 -15 13 C-15.36869204 9.96584582 -15.39401885 7.03175618 -15 4 C-11.38840214 -0.28041228 -5.29060318 -0.56283013 0 0 Z " fill="#D0AE56" transform="translate(166,321)"/>
<path d="M0 0 C2.8125 -0.3125 2.8125 -0.3125 6 0 C9.12408713 4.23619423 11.05963022 9.33055923 13.1875 14.125 C13.73954102 15.34123047 13.73954102 15.34123047 14.30273438 16.58203125 C14.65013672 17.36191406 14.99753906 18.14179688 15.35546875 18.9453125 C15.67153076 19.65187988 15.98759277 20.35844727 16.31323242 21.08642578 C17 23 17 23 17 26 C11.25 26.125 11.25 26.125 9 25 C8.67 24.01 8.34 23.02 8 22 C5.03 21.67 2.06 21.34 -1 21 C-1.309375 21.804375 -1.61875 22.60875 -1.9375 23.4375 C-3 26 -3 26 -4 27 C-5.66617115 27.04063832 -7.33388095 27.042721 -9 27 C-10.51143991 22.4055518 -8.71702834 19.36454254 -6.75 15.1875 C-6.11960345 13.80607546 -5.48939366 12.42456568 -4.859375 11.04296875 C-4.54935547 10.37313965 -4.23933594 9.70331055 -3.91992188 9.01318359 C-2.55759698 6.03183246 -1.27830478 3.01821963 0 0 Z " fill="#CDB263" transform="translate(304,322)"/>
<path d="M0 0 C0.38218767 1.65614657 0.71395102 3.32457024 1 5 C0.67 5.33 0.34 5.66 0 6 C0.30271961 7.34061543 0.63837971 8.67405895 1 10 C1 10.66 1 11.32 1 12 C0.33613281 11.91878906 -0.32773438 11.83757812 -1.01171875 11.75390625 C-6.10901085 11.27194647 -6.10901085 11.27194647 -10.63671875 13.20703125 C-12.0194153 15.06952786 -13.01523223 16.89891152 -14 19 C-14.37898437 19.77214844 -14.75796875 20.54429687 -15.1484375 21.33984375 C-17.48223056 26.57846435 -18.47481157 31.24005378 -18.62890625 36.96875 C-18.75136719 37.6390625 -18.87382812 38.309375 -19 39 C-19.99 39.66 -20.98 40.32 -22 41 C-22.66 40.67 -23.32 40.34 -24 40 C-24.5625 37.8125 -24.5625 37.8125 -25 35 C-25.1959375 34.071875 -25.391875 33.14375 -25.59375 32.1875 C-26.62986372 24.05799235 -23.28873182 16.40808657 -18.53515625 9.97265625 C-18.02855469 9.32167969 -17.52195313 8.67070312 -17 8 C-16.58621094 7.40058594 -16.17242187 6.80117187 -15.74609375 6.18359375 C-11.73963362 0.69619787 -6.54068797 -0.39640533 0 0 Z " fill="#CCA53E" transform="translate(226,190)"/>
<path d="M0 0 C0 2 0 2 -2 4.125 C-2.66 4.74375 -3.32 5.3625 -4 6 C-0.7 5.67 2.6 5.34 6 5 C3.42595029 8.86107457 1.38979741 8.94319692 -3 10 C-3.96624167 11.67828408 -3.96624167 11.67828408 -4 14 C-1.97980842 17.35763197 -1.97980842 17.35763197 1 20 C3.71305777 20.50379029 3.71305777 20.50379029 6 20 C5.67 20.99 5.34 21.98 5 23 C2.4375 24.1875 2.4375 24.1875 0 25 C-0.33 23.68 -0.66 22.36 -1 21 C-2.97536745 21.34786708 -2.97536745 21.34786708 -5 22 C-5.33 22.66 -5.66 23.32 -6 24 C-3.525 24.99 -3.525 24.99 -1 26 C-1.67170806 29.8063457 -2.72746564 33.35206816 -4 37 C-3.34 37 -2.68 37 -2 37 C-1.690625 36.38125 -1.38125 35.7625 -1.0625 35.125 C-0.375 33.75 0.3125 32.375 1 31 C2.32 31.33 3.64 31.66 5 32 C4.525625 32.556875 4.05125 33.11375 3.5625 33.6875 C0.94626117 37.55953347 0.87099922 41.72273342 0.68359375 46.30078125 C0.64169922 47.27724609 0.59980469 48.25371094 0.55664062 49.25976562 C0.51732422 50.26716797 0.47800781 51.27457031 0.4375 52.3125 C0.39431641 53.33923828 0.35113281 54.36597656 0.30664062 55.42382812 C0.20093262 57.94907489 0.09999792 60.47452067 0 63 C-4.95 63 -9.9 63 -15 63 C-14.01 62.505 -14.01 62.505 -13 62 C-13 61.34 -13 60.68 -13 60 C-9.37 60 -5.74 60 -2 60 C-2.33 53.73 -2.66 47.46 -3 41 C-3.99 40.67 -4.98 40.34 -6 40 C-6.33 44.29 -6.66 48.58 -7 53 C-7.33 53 -7.66 53 -8 53 C-8.73033086 37.60219099 -8.73033086 37.60219099 -4.77734375 30.734375 C-3.68426875 28.81956431 -3.68426875 28.81956431 -5 26 C-6.32848691 24.99357052 -7.66150329 23.99307821 -9 23 C-9 22.34 -9 21.68 -9 21 C-9.66 21 -10.32 21 -11 21 C-11 20.34 -11 19.68 -11 19 C-9.35 19.33 -7.7 19.66 -6 20 C-6.66 18.68 -7.32 17.36 -8 16 C-7.67 15.67 -7.34 15.34 -7 15 C-7 14.01 -7 13.02 -7 12 C-7 10.68 -7 9.36 -7 8 C-7.9075 8.350625 -8.815 8.70125 -9.75 9.0625 C-13.00591313 10.00170571 -13.92749994 9.95514676 -17 9 C-14.87562549 7.68647829 -12.75053408 6.37414287 -10.625 5.0625 C-10.02171875 4.68931641 -9.4184375 4.31613281 -8.796875 3.93164062 C-2.42124155 0 -2.42124155 0 0 0 Z " fill="#D3B465" transform="translate(233,182)"/>
<path d="M0 0 C0.495 2.97 0.495 2.97 1 6 C0.34 6 -0.32 6 -1 6 C-1.33 6.66 -1.66 7.32 -2 8 C-2.99 8.33 -3.98 8.66 -5 9 C-4.01 9.33 -3.02 9.66 -2 10 C-2 10.66 -2 11.32 -2 12 C-2.66 12 -3.32 12 -4 12 C-4.33 12.99 -4.66 13.98 -5 15 C-10.61 15 -16.22 15 -22 15 C-22.33 15.66 -22.66 16.32 -23 17 C-23.99 17.33 -24.98 17.66 -26 18 C-26.061875 18.721875 -26.12375 19.44375 -26.1875 20.1875 C-27.2536405 23.87798635 -29.14791164 25.49572729 -32 28 C-32.66 28.33 -33.32 28.66 -34 29 C-34 28.01 -34 27.02 -34 26 C-34.66 26 -35.32 26 -36 26 C-36 24.35 -36 22.7 -36 21 C-36.66 20.67 -37.32 20.34 -38 20 C-35.07175348 19.02391783 -33.04386724 18.91773332 -30 19 C-30 17.68 -30 16.36 -30 15 C-26.43230757 10.45930054 -23.43454871 9.17215757 -18 8 C-18.33 7.01 -18.66 6.02 -19 5 C-18.24074219 4.80664062 -17.48148438 4.61328125 -16.69921875 4.4140625 C-15.70535156 4.15367187 -14.71148437 3.89328125 -13.6875 3.625 C-12.70136719 3.36976563 -11.71523437 3.11453125 -10.69921875 2.8515625 C-1.41765453 -0.07662997 -1.41765453 -0.07662997 0 0 Z " fill="#CFA63E" transform="translate(262,238)"/>
<path d="M0 0 C2.73846782 1.02692543 5.05885242 2.33331731 7.5 3.9375 C8.056875 3.256875 8.61375 2.57625 9.1875 1.875 C11.5 -0.0625 11.5 -0.0625 13.9375 -0.125 C17.31781785 1.2765952 19.17045312 3.14204374 21.5 5.9375 C21.5 6.9275 21.5 7.9175 21.5 8.9375 C20.84 8.9375 20.18 8.9375 19.5 8.9375 C18.84 10.2575 18.18 11.5775 17.5 12.9375 C16.84 12.9375 16.18 12.9375 15.5 12.9375 C15.5 13.5975 15.5 14.2575 15.5 14.9375 C14.18 14.9375 12.86 14.9375 11.5 14.9375 C11.5 14.2775 11.5 13.6175 11.5 12.9375 C10.84 12.9375 10.18 12.9375 9.5 12.9375 C9.5 12.2775 9.5 11.6175 9.5 10.9375 C7.06282742 11.20784634 7.06282742 11.20784634 4.5 11.9375 C3.51 13.4225 3.51 13.4225 2.5 14.9375 C-2.25 14.0625 -2.25 14.0625 -4.5 12.9375 C-4.5 12.2775 -4.5 11.6175 -4.5 10.9375 C-5.82 10.2775 -7.14 9.6175 -8.5 8.9375 C-8.21097731 5.46922778 -7.68328212 4.13096446 -5.25 1.5625 C-2.5 -0.0625 -2.5 -0.0625 0 0 Z " fill="#CDAA4D" transform="translate(156.5,235.0625)"/>
<path d="M0 0 C0.33 0.99 0.66 1.98 1 3 C0.67 3.66 0.34 4.32 0 5 C0.66 5 1.32 5 2 5 C2 5.66 2 6.32 2 7 C3.2375 6.95875 4.475 6.9175 5.75 6.875 C9.01637962 6.86341709 11.2146947 7.1431298 14 9 C13.01 9.495 13.01 9.495 12 10 C12 11.65 12 13.3 12 15 C12.66 15.33 13.32 15.66 14 16 C8.60363825 18.70172645 4.55398437 19.40128581 -1.4375 19.1875 C-2.16904297 19.17396484 -2.90058594 19.16042969 -3.65429688 19.14648438 C-5.43652422 19.11153874 -7.21836573 19.05774805 -9 19 C-8.67 18.34 -8.34 17.68 -8 17 C-8.99 16.34 -9.98 15.68 -11 15 C-11 14.34 -11 13.68 -11 13 C-10.01 12.34 -9.02 11.68 -8 11 C-8 10.34 -8 9.68 -8 9 C-5 7 -5 7 -2 7 C-1.855625 6.030625 -1.71125 5.06125 -1.5625 4.0625 C-1 1 -1 1 0 0 Z " fill="#D1A741" transform="translate(294,285)"/>
<path d="M0 0 C1.32 0 2.64 0 4 0 C4.82713569 2.89374285 5.12836471 5.47049367 5.1328125 8.4765625 C5.13474609 9.72953125 5.13474609 9.72953125 5.13671875 11.0078125 C5.13285156 11.87148438 5.12898438 12.73515625 5.125 13.625 C5.12886719 14.49640625 5.13273437 15.3678125 5.13671875 16.265625 C5.13542969 17.09835937 5.13414062 17.93109375 5.1328125 18.7890625 C5.13168457 19.54912598 5.13055664 20.30918945 5.12939453 21.09228516 C5 23 5 23 4 25 C1.33230578 24.84756033 -0.44334709 24.55349011 -2.375 22.6328125 C-3.60348251 21.10452176 -4.80289981 19.55299484 -6 18 C-6.66 17.67 -7.32 17.34 -8 17 C-7.67 14.36 -7.34 11.72 -7 9 C-5.02 9.495 -5.02 9.495 -3 10 C-2.67 9.34 -2.34 8.68 -2 8 C-1.34 8 -0.68 8 0 8 C0 5.36 0 2.72 0 0 Z " fill="#CFAA4C" transform="translate(280,324)"/>
<path d="M0 0 C1.2065625 0.0309375 1.2065625 0.0309375 2.4375 0.0625 C2.7675 2.7025 3.0975 5.3425 3.4375 8.0625 C4.035625 7.876875 4.63375 7.69125 5.25 7.5 C7.4375 7.0625 7.4375 7.0625 10.4375 8.0625 C10.5625 14.8125 10.5625 14.8125 9.4375 17.0625 C7.1275 17.0625 4.8175 17.0625 2.4375 17.0625 C2.4375 19.7025 2.4375 22.3425 2.4375 25.0625 C0.7875 25.0625 -0.8625 25.0625 -2.5625 25.0625 C-2.75835353 21.08369772 -2.9427867 17.10444844 -3.125 13.125 C-3.18107422 11.98869141 -3.23714844 10.85238281 -3.29492188 9.68164062 C-3.34326172 8.60205078 -3.39160156 7.52246094 -3.44140625 6.41015625 C-3.4885376 5.40992432 -3.53566895 4.40969238 -3.58422852 3.37915039 C-3.55336635 0.08868854 -3.29710786 0.08041726 0 0 Z " fill="#CEA63F" transform="translate(216.5625,321.9375)"/>
<path d="M0 0 C0.66 0.33 1.32 0.66 2 1 C2.02505615 1.75095947 2.0501123 2.50191895 2.07592773 3.27563477 C2.19254942 6.70473533 2.31497417 10.13360553 2.4375 13.5625 C2.47681641 14.74392578 2.51613281 15.92535156 2.55664062 17.14257812 C2.7637504 22.83013123 3.01968432 28.38995814 4 34 C6.4178712 34.10826289 8.83087556 34.18739789 11.25 34.25 C12.27287109 34.30027344 12.27287109 34.30027344 13.31640625 34.3515625 C16.61877485 34.41568616 18.62047648 34.25967398 21.375 32.375 C23.32181954 29.52964837 24.0189697 27.1127394 24.75 23.75 C24.99234375 22.67234375 25.2346875 21.5946875 25.484375 20.484375 C25.65453125 19.66453125 25.8246875 18.8446875 26 18 C27.32 17.67 28.64 17.34 30 17 C29.01 17.495 29.01 17.495 28 18 C27.60637942 20.18893073 27.60637942 20.18893073 27.5 22.75 C27.03663873 28.35028022 26.24467098 32.12443085 22 36 C21.505 36.99 21.505 36.99 21 38 C19.81921875 37.86980469 18.6384375 37.73960937 17.421875 37.60546875 C15.86470786 37.46476088 14.30740819 37.32551422 12.75 37.1875 C11.97269531 37.09791016 11.19539063 37.00832031 10.39453125 36.91601562 C8.15929083 36.73452174 6.2141892 36.63302905 4 37 C1.4043683 39.3125875 1.4043683 39.3125875 0 42 C0.33 42.66 0.66 43.32 1 44 C0.67 44.66 0.34 45.32 0 46 C-0.66 46 -1.32 46 -2 46 C-2.66 44.35 -3.32 42.7 -4 41 C-4.763125 41.350625 -5.52625 41.70125 -6.3125 42.0625 C-9 43 -9 43 -12 42 C-11.34 42 -10.68 42 -10 42 C-9.67 41.01 -9.34 40.02 -9 39 C-5.64842521 37.3242126 -2.73735566 36.74747113 1 36 C1 24.78 1 13.56 1 2 C-0.32 2.33 -1.64 2.66 -3 3 C-2.01 2.01 -1.02 1.02 0 0 Z " fill="#D3B362" transform="translate(170,256)"/>
<path d="M0 0 C1.4540625 0.0309375 1.4540625 0.0309375 2.9375 0.0625 C5.09134615 19.60096154 5.09134615 19.60096154 2.9375 26.0625 C0.6275 26.0625 -1.6825 26.0625 -4.0625 26.0625 C-4.09136751 21.91668113 -4.10925327 17.77088784 -4.125 13.625 C-4.13337891 12.44099609 -4.14175781 11.25699219 -4.15039062 10.03710938 C-4.15361328 8.91240234 -4.15683594 7.78769531 -4.16015625 6.62890625 C-4.16539307 5.58677979 -4.17062988 4.54465332 -4.17602539 3.47094727 C-4.00522792 -0.15253028 -3.69847781 0.07547914 0 0 Z " fill="#D7BE75" transform="translate(248.0625,321.9375)"/>
<path d="M0 0 C2.10209857 3.15314785 2.2434761 3.86103081 2.1953125 7.44921875 C2.18886719 8.29677734 2.18242187 9.14433594 2.17578125 10.01757812 C2.15902344 10.89865234 2.14226562 11.77972656 2.125 12.6875 C2.11597656 13.58017578 2.10695312 14.47285156 2.09765625 15.39257812 C2.07409915 17.59516666 2.03822844 19.79761725 2 22 C-1.63 22 -5.26 22 -9 22 C-9 22.66 -9 23.32 -9 24 C-11.86608129 25.43304064 -13.81300783 25.30644155 -17 25 C-20.375 23 -20.375 23 -23 21 C-22.34 20.67 -21.68 20.34 -21 20 C-21 19.34 -21 18.68 -21 18 C-19.35 18 -17.7 18 -16 18 C-15.67 18.99 -15.34 19.98 -15 21 C-13.35296694 20.18993474 -11.70740494 19.3768779 -10.0625 18.5625 C-9.14597656 18.11003906 -8.22945312 17.65757812 -7.28515625 17.19140625 C-5.09471096 16.19474606 -5.09471096 16.19474606 -4 15 C-3.79103683 13.19188816 -3.63219639 11.37783968 -3.5 9.5625 C-3.10992366 4.21984733 -3.10992366 4.21984733 -2 2 C-1.34 2 -0.68 2 0 2 C0 1.34 0 0.68 0 0 Z " fill="#CEA844" transform="translate(229,220)"/>
<path d="M0 0 C0 6.27 0 12.54 0 19 C-0.33 19 -0.66 19 -1 19 C-1.495 16.525 -1.495 16.525 -2 14 C-4.15811388 14.94729537 -4.15811388 14.94729537 -6 17 C-6.36933645 19.75372909 -6.18336678 22.20365661 -6 25 C-6.33 25 -6.66 25 -7 25 C-7.33 23.02 -7.66 21.04 -8 19 C-10.64 19 -13.28 19 -16 19 C-16 19.66 -16 20.32 -16 21 C-17.98 20.67 -19.96 20.34 -22 20 C-22 19.34 -22 18.68 -22 18 C-15.25 14 -15.25 14 -13 14 C-12.7525 13.360625 -12.505 12.72125 -12.25 12.0625 C-11 10 -11 10 -8.875 9.25 C-7.946875 9.12625 -7.946875 9.12625 -7 9 C-6.731875 7.88625 -6.46375 6.7725 -6.1875 5.625 C-4.98287931 1.94773683 -4.18319495 0 0 0 Z " fill="#CEA73F" transform="translate(171,258)"/>
<path d="M0 0 C0.66 0.66 1.32 1.32 2 2 C1.67 2.99 1.34 3.98 1 5 C4.3 4.67 7.6 4.34 11 4 C8 6 8 6 6 7 C6 7.99 6 8.98 6 10 C7.7015625 10.2165625 7.7015625 10.2165625 9.4375 10.4375 C13 11 13 11 14 12 C14.08855161 14.6662603 14.11524673 17.30647114 14.09765625 19.97265625 C14.0962413 20.77029892 14.09482635 21.56794159 14.09336853 22.38975525 C14.08775316 24.94737435 14.07519812 27.50490718 14.0625 30.0625 C14.05748698 31.79231645 14.05292373 33.52213426 14.04882812 35.25195312 C14.03777875 39.50133553 14.02050386 43.75065312 14 48 C13.67 48 13.34 48 13 48 C13 36.45 13 24.9 13 13 C1.12 13 -10.76 13 -23 13 C-23.3373846 16.12498166 -23.3373846 16.12498166 -21 18.1875 C-20.34 18.785625 -19.68 19.38375 -19 20 C-20.65 19.67 -22.3 19.34 -24 19 C-24.33 17.02 -24.66 15.04 -25 13 C-24.360625 12.896875 -23.72125 12.79375 -23.0625 12.6875 C-22.0415625 12.3471875 -22.0415625 12.3471875 -21 12 C-20.67 11.01 -20.34 10.02 -20 9 C-14.39 9 -8.78 9 -3 9 C-2.67 8.34 -2.34 7.68 -2 7 C-1.34 7 -0.68 7 0 7 C0 6.34 0 5.68 0 5 C-1.32 4.67 -2.64 4.34 -4 4 C-3.34 3.34 -2.68 2.68 -2 2 C-1.34 2.33 -0.68 2.66 0 3 C0 2.01 0 1.02 0 0 Z " fill="#D6B86C" transform="translate(260,243)"/>
<path d="M0 0 C3 1 3 1 4 3 C4.084915 4.8863912 4.107193 6.77578515 4.09765625 8.6640625 C4.09443359 9.78554687 4.09121094 10.90703125 4.08789062 12.0625 C4.07951172 13.238125 4.07113281 14.41375 4.0625 15.625 C4.05798828 16.80835938 4.05347656 17.99171875 4.04882812 19.2109375 C4.03701467 22.14067507 4.02054258 25.07031272 4 28 C2.68 27.67 1.36 27.34 0 27 C-0.33 27.66 -0.66 28.32 -1 29 C-4.63 29 -8.26 29 -12 29 C-12.33 28.01 -12.66 27.02 -13 26 C-11.09598862 24.09598862 -9.66574314 23.06479561 -6.953125 22.80078125 C-4.96766727 22.8113422 -2.9830086 22.90084957 -1 23 C-1.01160156 22.17757812 -1.02320313 21.35515625 -1.03515625 20.5078125 C-1.09101958 13.59672029 -0.86694034 6.85811735 0 0 Z " fill="#CEA842" transform="translate(291,214)"/>
<path d="M0 0 C0.33 0 0.66 0 1 0 C1 6.6 1 13.2 1 20 C-2.96 20.495 -2.96 20.495 -7 21 C-9.38740541 21.93786348 -9.38740541 21.93786348 -11 23 C-9.19925055 25.22229436 -9.19925055 25.22229436 -6.72265625 25.23046875 C-5.40587891 25.20919922 -5.40587891 25.20919922 -4.0625 25.1875 C-3.18722656 25.18105469 -2.31195313 25.17460937 -1.41015625 25.16796875 C1.1437675 25.09069243 1.1437675 25.09069243 4 24 C4.33 24.99 4.66 25.98 5 27 C-3.4312696 29.61660091 -14.37166583 28.52264721 -23 27 C-24 26 -24 26 -24.11352539 24.14233398 C-24.10828857 23.35157471 -24.10305176 22.56081543 -24.09765625 21.74609375 C-24.09443359 20.89208984 -24.09121094 20.03808594 -24.08789062 19.15820312 C-24.07951172 18.26037109 -24.07113281 17.36253906 -24.0625 16.4375 C-24.05798828 15.53580078 -24.05347656 14.63410156 -24.04882812 13.70507812 C-24.03700225 11.46998686 -24.0205222 9.23502563 -24 7 C-23.01 7.495 -23.01 7.495 -22 8 C-22 13.61 -22 19.22 -22 25 C-20.35 25 -18.7 25 -17 25 C-16.67 23.02 -16.34 21.04 -16 19 C-14.27185839 18.80327635 -12.54240803 18.61803201 -10.8125 18.4375 C-9.84957031 18.33308594 -8.88664062 18.22867188 -7.89453125 18.12109375 C-5 18 -5 18 0 19 C0 12.73 0 6.46 0 0 Z " fill="#D9B564" transform="translate(289,217)"/>
<path d="M0 0 C0 0.33 0 0.66 0 1 C-1.98 1 -3.96 1 -6 1 C-6 4.3 -6 7.6 -6 11 C-1.45194365 11.17835515 1.8794254 10.99785435 6 9 C6 6.69 6 4.38 6 2 C8.64 2 11.28 2 14 2 C13.67 2.99 13.34 3.98 13 5 C11.35 5 9.7 5 8 5 C7.67 13.91 7.34 22.82 7 32 C6.67 32 6.34 32 6 32 C5.90912109 30.95199219 5.90912109 30.95199219 5.81640625 29.8828125 C5.69072266 28.51769531 5.69072266 28.51769531 5.5625 27.125 C5.48128906 26.22007812 5.40007812 25.31515625 5.31640625 24.3828125 C5.13010715 21.98889139 5.13010715 21.98889139 4 20 C2.68 20.33 1.36 20.66 0 21 C0 18.69 0 16.38 0 14 C-0.7425 14.061875 -1.485 14.12375 -2.25 14.1875 C-5.47519908 13.96760006 -6.69723426 13.21747812 -9 11 C-9 10.34 -9 9.68 -9 9 C-9.66 9 -10.32 9 -11 9 C-11 7.35 -11 5.7 -11 4 C-9.68 3.34 -8.36 2.68 -7 2 C-7 1.34 -7 0.68 -7 0 C-4.3333581 -1.33332095 -2.83319697 -0.67102033 0 0 Z " fill="#D3B256" transform="translate(201,252)"/>
<path d="M0 0 C1.72333549 2.58500324 3.23365529 5.13394035 4.6875 7.875 C5.14511719 8.71804688 5.60273438 9.56109375 6.07421875 10.4296875 C7.14952879 13.41514744 6.8877225 14.99788392 6 18 C3.6875 18.25 3.6875 18.25 1 18 C-0.97610386 15.95575462 -2 14.8823175 -2 12 C-5.3 12 -8.6 12 -12 12 C-12.144375 12.804375 -12.28875 13.60875 -12.4375 14.4375 C-13 17 -13 17 -14 18 C-15.99958364 18.04080783 -18.00045254 18.04254356 -20 18 C-20.33 16.68 -20.66 15.36 -21 14 C-20.34 14 -19.68 14 -19 14 C-18.01 10.7 -17.02 7.4 -16 4 C-14 8 -14 8 -14 11 C-9.38 11 -4.76 11 0 11 C0 7.37 0 3.74 0 0 Z " fill="#D0B25D" transform="translate(198,331)"/>
<path d="M0 0 C1.65 0 3.3 0 5 0 C5.4803318 1.58298026 5.95921612 3.16639978 6.4375 4.75 C6.83775391 6.07257813 6.83775391 6.07257813 7.24609375 7.421875 C7.88468494 9.60565835 8.46775833 11.78835498 9 14 C9.66 14 10.32 14 11 14 C11 15.32 11 16.64 11 18 C7.04 17.67 3.08 17.34 -1 17 C-0.67 15.35 -0.34 13.7 0 12 C-0.6492959 10.65812182 -1.31731862 9.32520503 -2 8 C-2.125 4.75 -2.125 4.75 -2 2 C-1.34 2 -0.68 2 0 2 C0 1.34 0 0.68 0 0 Z " fill="#CFA740" transform="translate(305,324)"/>
<path d="M0 0 C2.05078125 0.03255208 4.1015625 0.06510417 6.15234375 0.09765625 C5.34796875 0.77828125 4.54359375 1.45890625 3.71484375 2.16015625 C0.8401947 4.91365524 0.8401947 4.91365524 0.65234375 8.72265625 C0.15234375 12.09765625 0.15234375 12.09765625 -1.97265625 14.09765625 C-5.61300249 15.36386364 -8.12220825 14.90118425 -11.84765625 14.09765625 C-12.17765625 11.45765625 -12.50765625 8.81765625 -12.84765625 6.09765625 C-9.78917777 5.55392674 -6.9599282 5.09765625 -3.84765625 5.09765625 C-3.70328125 4.45828125 -3.55890625 3.81890625 -3.41015625 3.16015625 C-2.58556577 0.13665781 -2.58556577 0.13665781 0 0 Z " fill="#CEA53D" transform="translate(206.84765625,248.90234375)"/>
<path d="M0 0 C1.32 0.33 2.64 0.66 4 1 C6.58110659 15.91049965 6.58110659 15.91049965 6 23 C5.01 23.66 4.02 24.32 3 25 C2.01 24.67 1.02 24.34 0 24 C0.03480469 23.38253906 0.06960938 22.76507813 0.10546875 22.12890625 C0.25727435 17.37955966 0.06574952 13.63805648 -1.6875 9.1875 C-3.15379213 5.35884831 -3.15379213 5.35884831 -1.6875 1.9375 C-1.130625 1.298125 -0.57375 0.65875 0 0 Z " fill="#D0A640" transform="translate(360,265)"/>
<path d="M0 0 C1.65 0.33 3.3 0.66 5 1 C5.0270817 3.72923388 5.04687847 6.45819637 5.0625 9.1875 C5.07087891 9.95642578 5.07925781 10.72535156 5.08789062 11.51757812 C5.10491934 15.48526789 4.98604115 19.12571234 4 23 C2.68 23 1.36 23 0 23 C-2.09545915 14.81159038 -1.86553091 8.22268622 0 0 Z " fill="#CEA848" transform="translate(347,324)"/>
<path d="M0 0 C1.32 0 2.64 0 4 0 C3.96519531 0.61488281 3.93039063 1.22976562 3.89453125 1.86328125 C3.86746094 2.67152344 3.84039062 3.47976562 3.8125 4.3125 C3.77769531 5.11300781 3.74289063 5.91351563 3.70703125 6.73828125 C3.81997794 9.0622454 3.81997794 9.0622454 5.328125 10.77734375 C7.86927703 12.6357096 9.9326135 12.2503989 13 12 C15.26566343 11.56058477 15.26566343 11.56058477 17 11 C17.33 12.98 17.66 14.96 18 17 C12.25 21 12.25 21 10 21 C9.67 21.99 9.34 22.98 9 24 C8.67 22.68 8.34 21.36 8 20 C8.99 19.34 9.98 18.68 11 18 C11 17.34 11 16.68 11 16 C9.35 16 7.7 16 6 16 C6 15.34 6 14.68 6 14 C5.01 13.67 4.02 13.34 3 13 C1.3125 9.9375 1.3125 9.9375 0 7 C-1.32 7 -2.64 7 -4 7 C-2.92598892 4.08482708 -2.22189824 2.22189824 0 0 Z " fill="#CDB265" transform="translate(243,142)"/>
<path d="M0 0 C0 3 0 3 -1 6 C-1.99 6 -2.98 6 -4 6 C-5.20628008 8.33214148 -6.1654738 10.49642139 -7 13 C-8.32 13 -9.64 13 -11 13 C-11.309375 13.61875 -11.61875 14.2375 -11.9375 14.875 C-12.625 16.25 -13.3125 17.625 -14 19 C-14.66 19 -15.32 19 -16 19 C-15.40049704 15.31733897 -14.75241109 11.65456815 -14 8 C-15.32 7.34 -16.64 6.68 -18 6 C-17.67 5.01 -17.34 4.02 -17 3 C-15.68 3 -14.36 3 -13 3 C-12.01 4.485 -12.01 4.485 -11 6 C-7.87802522 4.6910428 -7.87802522 4.6910428 -6 2 C-4.02111039 1.27306096 -2.02045442 0.60183749 0 0 Z " fill="#CFA73E" transform="translate(245,200)"/>
<path d="M0 0 C0.66 0 1.32 0 2 0 C2.02701408 2.10409639 2.04640223 4.20829178 2.0625 6.3125 C2.07410156 7.48425781 2.08570313 8.65601563 2.09765625 9.86328125 C2 13 2 13 1 16 C0.34 16 -0.32 16 -1 16 C-0.67 17.98 -0.34 19.96 0 22 C2.31 22 4.62 22 7 22 C6.67 23.32 6.34 24.64 6 26 C4.68 26 3.36 26 2 26 C-0.33640176 26.65583207 -2.66989091 27.32215008 -5 28 C-5.99 28 -6.98 28 -8 28 C-6.87204037 23.89100419 -5.66489182 19.92438786 -4 16 C-5.65 15.67 -7.3 15.34 -9 15 C-9 14.34 -9 13.68 -9 13 C-7.88625 13.020625 -6.7725 13.04125 -5.625 13.0625 C-2.16784079 13.26380718 -2.16784079 13.26380718 0 12 C0 8.04 0 4.08 0 0 Z " fill="#D3AA4B" transform="translate(215,277)"/>
<path d="M0 0 C2 2 2 2 2.125 5.125 C2.08375 6.07375 2.0425 7.0225 2 8 C2.66 8.33 3.32 8.66 4 9 C3.67 9.66 3.34 10.32 3 11 C2.505 10.855625 2.01 10.71125 1.5 10.5625 C-0.89641324 9.9594665 -0.89641324 9.9594665 -2.9765625 9.8515625 C-5.125 9.6875 -5.125 9.6875 -9 9 C-11.30873861 6.21027418 -11 4.73200169 -11 1 C-7.31620978 -0.17881287 -3.84458427 -0.21358801 0 0 Z M-11 9 C-9 10 -9 10 -9 10 Z " fill="#CEA744" transform="translate(282,191)"/>
<path d="M0 0 C0.66 0 1.32 0 2 0 C3.125 2.25 3.125 2.25 4 5 C3.125 7.3125 3.125 7.3125 2 9 C2.99 9.33 3.98 9.66 5 10 C3.35 10 1.7 10 0 10 C0.04125 10.78375 0.0825 11.5675 0.125 12.375 C0 15 0 15 -2 17 C-4.625 17.125 -4.625 17.125 -7 17 C-7.84119973 14.60042386 -8.11193544 13.35077442 -7.328125 10.89453125 C-6.97234375 10.20746094 -6.6165625 9.52039063 -6.25 8.8125 C-5.73179687 7.77029297 -5.73179687 7.77029297 -5.203125 6.70703125 C-4 5 -4 5 -1 4 C-0.26676204 1.98491642 -0.26676204 1.98491642 0 0 Z " fill="#D1AB54" transform="translate(302,332)"/>
<path d="M0 0 C0.66 0.33 1.32 0.66 2 1 C1.20446612 3.78113469 0.33586031 6.42860091 -1 9 C-3.5 10.3125 -3.5 10.3125 -6 11 C-7.02104551 11.97850195 -8.0206121 12.97980427 -9 14 C-13.55555556 17 -13.55555556 17 -16 17 C-16 17.66 -16 18.32 -16 19 C-14.02 19.33 -12.04 19.66 -10 20 C-10 19.34 -10 18.68 -10 18 C-8.35 18 -6.7 18 -5 18 C-6.97206655 19.54948086 -8.77268523 20.8966751 -11.0625 21.9375 C-13.42457044 23.23282895 -14.52010895 24.78016342 -16 27 C-16.33 26.01 -16.66 25.02 -17 24 C-17.66 23.34 -18.32 22.68 -19 22 C-19.75 20.0625 -19.75 20.0625 -20 18 C-19.01 16.515 -19.01 16.515 -18 15 C-17.34 15 -16.68 15 -16 15 C-16 14.34 -16 13.68 -16 13 C-14.06629769 11.99267601 -12.12789694 10.99436712 -10.1875 10 C-9.10855469 9.443125 -8.02960938 8.88625 -6.91796875 8.3125 C-4 7 -4 7 -1 7 C-1.020625 6.030625 -1.04125 5.06125 -1.0625 4.0625 C-1 1 -1 1 0 0 Z " fill="#D0AE62" transform="translate(165,259)"/>
<path d="M0 0 C0.66 0.33 1.32 0.66 2 1 C2 1.66 2 2.32 2 3 C2.598125 3.165 3.19625 3.33 3.8125 3.5 C7.24711563 5.855165 7.99731822 9.06805501 9 13 C9.78219756 18.47538289 8.59857791 21.75940877 5.55859375 26.203125 C1.98988275 30.31742841 -2.60046761 32.34551123 -8 33 C-7.67 32.01 -7.34 31.02 -7 30 C-5.02 30 -3.04 30 -1 30 C-1 28.68 -1 27.36 -1 26 C1.25660504 24.39662274 3.53164435 23.23417783 6 22 C5.68985608 19.91631462 5.3767948 17.83306332 5.0625 15.75 C4.88847656 14.58984375 4.71445312 13.4296875 4.53515625 12.234375 C4.1272264 9.76893039 3.66098697 7.40575438 3 5 C0.69 5 -1.62 5 -4 5 C-3.34 4.01 -2.68 3.02 -2 2 C-1.34 2 -0.68 2 0 2 C0 1.34 0 0.68 0 0 Z " fill="#D7BE6B" transform="translate(252,271)"/>
<path d="M0 0 C0.99 0.33 1.98 0.66 3 1 C3.6875 3.0625 3.6875 3.0625 4 5 C2.68 5 1.36 5 0 5 C-1.32675056 7.63854533 -1.32675056 7.63854533 -2 11 C-1.0421975 13.35096976 -0.03842565 15.68351201 1 18 C1.44200717 21.8639982 1.23829443 25.2851167 0 29 C-4.62 29 -9.24 29 -14 29 C-13.67 28.34 -13.34 27.68 -13 27 C-12.37351562 27.01160156 -11.74703125 27.02320313 -11.1015625 27.03515625 C-9.87566406 27.04869141 -9.87566406 27.04869141 -8.625 27.0625 C-7.40683594 27.07990234 -7.40683594 27.07990234 -6.1640625 27.09765625 C-3.95062858 27.14466334 -3.95062858 27.14466334 -2 26 C-2.37175213 20.23143247 -3.29309705 16.17842303 -6 11 C-6.5625 8.5 -6.5625 8.5 -6 6 C-4.18247338 3.7820907 -2.16506472 1.8751007 0 0 Z " fill="#D4B872" transform="translate(360,261)"/>
<path d="M0 0 C0.38218767 1.65614657 0.71395102 3.32457024 1 5 C0.67 5.33 0.34 5.66 0 6 C0.30271961 7.34061543 0.63837971 8.67405895 1 10 C1 10.66 1 11.32 1 12 C-0.64767247 11.71890887 -2.29313145 11.42481474 -3.9375 11.125 C-4.85402344 10.96257812 -5.77054688 10.80015625 -6.71484375 10.6328125 C-7.84599609 10.31957031 -7.84599609 10.31957031 -9 10 C-9.33 9.34 -9.66 8.68 -10 8 C-10.99 7.34 -11.98 6.68 -13 6 C-9.73120626 0.83874673 -5.9714046 -0.34122312 0 0 Z " fill="#CFA63E" transform="translate(226,190)"/>
<path d="M0 0 C0.12375 1.11375 0.2475 2.2275 0.375 3.375 C0.6465813 7.03103677 0.6465813 7.03103677 3 9 C3.3125 12 3.3125 12 3 15 C2.01 15.66 1.02 16.32 0 17 C-0.66 17.99 -1.32 18.98 -2 20 C-3.65 19.67 -5.3 19.34 -7 19 C-6.125 15.125 -6.125 15.125 -5 14 C-4.46309089 10.64319011 -4.03372615 7.27754672 -3.59765625 3.90625 C-3.40042969 2.9471875 -3.20320313 1.988125 -3 1 C-1 0 -1 0 0 0 Z " fill="#D1A63C" transform="translate(341,277)"/>
<path d="M0 0 C1.10844919 3.32534757 0.84454356 5.62182575 0 9 C-0.66 9 -1.32 9 -2 9 C-2 9.99 -2 10.98 -2 12 C-4.475 11.01 -4.475 11.01 -7 10 C-7 9.34 -7 8.68 -7 8 C-8.32 7.34 -9.64 6.68 -11 6 C-10.67 4.35 -10.34 2.7 -10 1 C-6.61981469 -0.04005702 -3.5219721 -0.08004482 0 0 Z " fill="#D0AD54" transform="translate(159,238)"/>
<path d="M0 0 C3.86198128 7.20903173 3.88122961 15.00425614 3 23 C1.51111598 26.76115009 -0.27239363 29.99680646 -3 33 C-3.66 33 -4.32 33 -5 33 C-5 33.66 -5 34.32 -5 35 C-9.47378703 37.30905137 -14.05482616 37.66065191 -19 37 C-19.66 36.34 -20.32 35.68 -21 35 C-16.38 34.67 -11.76 34.34 -7 34 C-7 33.34 -7 32.68 -7 32 C-6.34 32 -5.68 32 -5 32 C-4.9175 31.443125 -4.835 30.88625 -4.75 30.3125 C-3.65565914 26.93828234 -1.49125132 24.49125132 1 22 C1.24581485 14.62555462 0.6356611 7.34415592 0 0 Z " fill="#D2BB75" transform="translate(364,266)"/>
<path d="M0 0 C0.66 0.33 1.32 0.66 2 1 C1.01 2.485 1.01 2.485 0 4 C0.99 4.66 1.98 5.32 3 6 C4.1875 8.125 4.1875 8.125 5 10 C4.01 10.33 3.02 10.66 2 11 C0.34708103 13.14135279 0.34708103 13.14135279 -1.125 15.75 C-1.64320313 16.61109375 -2.16140625 17.4721875 -2.6953125 18.359375 C-3.9756446 20.95070584 -4.58024266 23.15384048 -5 26 C-5.33 26 -5.66 26 -6 26 C-6.125 19.375 -6.125 19.375 -5 16 C-4.34 16 -3.68 16 -3 16 C-3.34227572 13.02934491 -3.34227572 13.02934491 -4 10 C-4.66 9.67 -5.32 9.34 -6 9 C-6 9.66 -6 10.32 -6 11 C-6.66 10.67 -7.32 10.34 -8 10 C-5.36 6.7 -2.72 3.4 0 0 Z " fill="#D6B766" transform="translate(214,192)"/>
<path d="M0 0 C1.65 0 3.3 0 5 0 C5 5.61 5 11.22 5 17 C3.02 17 1.04 17 -1 17 C-0.67 11.39 -0.34 5.78 0 0 Z " fill="#CEA646" transform="translate(245,330)"/>
<path d="M0 0 C2.5 0.125 2.5 0.125 3.5 1.125 C3.54063832 2.79117115 3.542721 4.45888095 3.5 6.125 C3.17 4.805 2.84 3.485 2.5 2.125 C1.18 2.125 -0.14 2.125 -1.5 2.125 C-1.5 4.765 -1.5 7.405 -1.5 10.125 C-2.16 10.125 -2.82 10.125 -3.5 10.125 C-3.83 11.115 -4.16 12.105 -4.5 13.125 C-5.49 12.795 -6.48 12.465 -7.5 12.125 C-8.16 14.105 -8.82 16.085 -9.5 18.125 C-11.20840281 16.49087557 -12.43453047 15.25593906 -13.5 13.125 C-13.5 15.105 -13.5 17.085 -13.5 19.125 C-13.83 19.125 -14.16 19.125 -14.5 19.125 C-14.5 16.815 -14.5 14.505 -14.5 12.125 C-13.18 11.795 -11.86 11.465 -10.5 11.125 C-10.5 9.475 -10.5 7.825 -10.5 6.125 C-9.84 6.125 -9.18 6.125 -8.5 6.125 C-7.84 6.785 -7.18 7.445 -6.5 8.125 C-5.51 8.455 -4.52 8.785 -3.5 9.125 C-3.520625 7.825625 -3.54125 6.52625 -3.5625 5.1875 C-3.58399454 3.83334367 -3.57148199 2.47743917 -3.5 1.125 C-2.5 0.125 -2.5 0.125 0 0 Z " fill="#D3B774" transform="translate(281.5,321.875)"/>
<path d="M0 0 C3.94876098 0.56410871 6.75634176 1.65735794 10 4 C10.33 4.99 10.66 5.98 11 7 C11.99 7.33 12.98 7.66 14 8 C14 9.65 14 11.3 14 13 C13.34 13 12.68 13 12 13 C12 12.34 12 11.68 12 11 C9.56282742 11.27034634 9.56282742 11.27034634 7 12 C6.01 13.485 6.01 13.485 5 15 C4.34 15 3.68 15 3 15 C3 14.01 3 13.02 3 12 C3.66 12 4.32 12 5 12 C5 9.03 5 6.06 5 3 C2.36 3.33 -0.28 3.66 -3 4 C-2.01 2.68 -1.02 1.36 0 0 Z " fill="#D5BB6B" transform="translate(154,235)"/>
<path d="M0 0 C1.65 0 3.3 0 5 0 C5.33 2.31 5.66 4.62 6 7 C6.721875 7.12375 7.44375 7.2475 8.1875 7.375 C10.95721894 7.9904931 13.3970354 8.88444374 16 10 C15.4225 10.12375 14.845 10.2475 14.25 10.375 C8.50398121 11.97111633 5.28373317 15.07440024 2 20 C1.875 14.25 1.875 14.25 3 12 C1.68 11.34 0.36 10.68 -1 10 C-0.34 9.4225 0.32 8.845 1 8.25 C3.44290923 6.00346023 3.44290923 6.00346023 3 2 C2.01 1.34 1.02 0.68 0 0 Z " fill="#D6B466" transform="translate(266,191)"/>
<path d="M0 0 C-4.21683811 2.8990762 -8.06866002 3.91343356 -13 5 C-13 5.66 -13 6.32 -13 7 C-17.27113698 9.18326108 -21.50202887 11.31326082 -26 13 C-26 11.68 -26 10.36 -26 9 C-20.85015945 4.60274575 -6.86076723 -3.43038362 0 0 Z " fill="#D1B366" transform="translate(257,239)"/>
<path d="M0 0 C1.32 0 2.64 0 4 0 C3.835 0.804375 3.67 1.60875 3.5 2.4375 C2.96808161 4.7284443 2.96808161 4.7284443 3 6 C3 6.66 3 7.32 3 8 C5.97 8.33 8.94 8.66 12 9 C12.33 10.32 12.66 11.64 13 13 C9.7 13.33 6.4 13.66 3 14 C2.67 12.68 2.34 11.36 2 10 C1.67 11.65 1.34 13.3 1 15 C0.67 15 0.34 15 0 15 C0 10.05 0 5.1 0 0 Z " fill="#CDA644" transform="translate(331,324)"/>
<path d="M0 0 C1.98 0 3.96 0 6 0 C5.154375 0.9075 4.30875 1.815 3.4375 2.75 C1.26738125 5.18952952 1.26738125 5.18952952 1.1875 8.375 C1.455625 8.91125 1.72375 9.4475 2 10 C1.34 10 0.68 10 0 10 C0 10.66 0 11.32 0 12 C-0.99 12.33 -1.98 12.66 -3 13 C-3 12.01 -3 11.02 -3 10 C-3.99 10 -4.98 10 -6 10 C-6 9.34 -6 8.68 -6 8 C-5.34 8 -4.68 8 -4 8 C-4.33 7.34 -4.66 6.68 -5 6 C-6.32 6.33 -7.64 6.66 -9 7 C-8.34 5.35 -7.68 3.7 -7 2 C-4.69 2.33 -2.38 2.66 0 3 C0 2.01 0 1.02 0 0 Z " fill="#CDA63E" transform="translate(265,202)"/>
<path d="M0 0 C0.66 0.33 1.32 0.66 2 1 C2 1.66 2 2.32 2 3 C2.66 3.33 3.32 3.66 4 4 C-8.375 4.495 -8.375 4.495 -21 5 C-21.3373846 8.12498166 -21.3373846 8.12498166 -19 10.1875 C-18.34 10.785625 -17.68 11.38375 -17 12 C-18.65 11.67 -20.3 11.34 -22 11 C-22.33 9.02 -22.66 7.04 -23 5 C-22.360625 4.896875 -21.72125 4.79375 -21.0625 4.6875 C-20.381875 4.460625 -19.70125 4.23375 -19 4 C-18.67 3.01 -18.34 2.02 -18 1 C-16.78441406 1.01160156 -15.56882813 1.02320313 -14.31640625 1.03515625 C-12.73177236 1.04453278 -11.14713682 1.05363313 -9.5625 1.0625 C-8.76005859 1.07087891 -7.95761719 1.07925781 -7.13085938 1.08789062 C-5.08704779 1.0965143 -3.04316098 1.0522815 -1 1 C-0.67 0.67 -0.34 0.34 0 0 Z " fill="#CFB162" transform="translate(258,251)"/>
<path d="M0 0 C2 4 2 4 2 7 C2.66 7 3.32 7 4 7 C3.125 12.875 3.125 12.875 2 14 C0.00041636 14.04080783 -2.00045254 14.04254356 -4 14 C-4.33 12.68 -4.66 11.36 -5 10 C-4.34 10 -3.68 10 -3 10 C-2.01 6.7 -1.02 3.4 0 0 Z " fill="#CBA850" transform="translate(182,335)"/>
<path d="M0 0 C1.670625 0.061875 1.670625 0.061875 3.375 0.125 C2.385 0.785 1.395 1.445 0.375 2.125 C-1.1409375 3.176875 -1.1409375 3.176875 -2.6875 4.25 C-7.19591037 6.78538511 -11.57657904 6.9637153 -16.625 6.125 C-19.27097781 5.03271023 -21.25488993 3.77377222 -23.625 2.125 C-22.965 1.795 -22.305 1.465 -21.625 1.125 C-20.965 1.455 -20.305 1.785 -19.625 2.125 C-17.29406388 2.24783119 -14.95913961 2.30054232 -12.625 2.3125 C-11.366875 2.32667969 -10.10875 2.34085937 -8.8125 2.35546875 C-4.61907696 2.05226782 -4.35179964 0.15006206 0 0 Z " fill="#DABF78" transform="translate(335.625,297.875)"/>
<path d="M0 0 C0.625 1.8125 0.625 1.8125 1 4 C-1.15160111 7.22740166 -1.42157545 7.43812915 -4.9375 8.25 C-5.97197266 8.50523437 -5.97197266 8.50523437 -7.02734375 8.765625 C-9 9 -9 9 -12 8 C-11.34 6.68 -10.68 5.36 -10 4 C-9.34 4 -8.68 4 -8 4 C-8 3.34 -8 2.68 -8 2 C-6.2984375 1.7834375 -6.2984375 1.7834375 -4.5625 1.5625 C-1.19222799 1.38828522 -1.19222799 1.38828522 0 0 Z " fill="#CEA53A" transform="translate(241,180)"/>
<path d="M0 0 C1.875 0.8125 1.875 0.8125 3.875 2.8125 C3.545 3.8025 3.215 4.7925 2.875 5.8125 C2.875 5.1525 2.875 4.4925 2.875 3.8125 C1.555 3.4825 0.235 3.1525 -1.125 2.8125 C-0.795 3.8025 -0.465 4.7925 -0.125 5.8125 C-1.0625 8.5 -1.0625 8.5 -2.125 10.8125 C-3.115 10.8125 -4.105 10.8125 -5.125 10.8125 C-5.125 9.4925 -5.125 8.1725 -5.125 6.8125 C-6.115 6.8125 -7.105 6.8125 -8.125 6.8125 C-6.55904576 3.02811059 -4.50365744 -0.39738154 0 0 Z " fill="#C8A23F" transform="translate(248.125,267.1875)"/>
<path d="M0 0 C1.98 0 3.96 0 6 0 C7.625 2.625 7.625 2.625 9 6 C8.1875 9.375 8.1875 9.375 7 12 C6.34 11.34 5.68 10.68 5 10 C2.41645782 9.83312552 2.41645782 9.83312552 0 10 C0.66 9.34 1.32 8.68 2 8 C1.34 7.34 0.68 6.68 0 6 C3.75 4.875 3.75 4.875 6 6 C5.67 5.01 5.34 4.02 5 3 C3.35 2.67 1.7 2.34 0 2 C0 2.66 0 3.32 0 4 C-0.66 4 -1.32 4 -2 4 C-1.34 2.68 -0.68 1.36 0 0 Z " fill="#D2AD4E" transform="translate(188,322)"/>
<path d="M0 0 C0.99 0.33 1.98 0.66 3 1 C2.34 1 1.68 1 1 1 C0.95101562 1.66386719 0.90203125 2.32773437 0.8515625 3.01171875 C-0.12533535 14.54921923 -0.12533535 14.54921923 -5 19 C-5.33 19.66 -5.66 20.32 -6 21 C-6.53625 20.855625 -7.0725 20.71125 -7.625 20.5625 C-10.39915827 19.90546252 -13.18525388 19.44780052 -16 19 C-16 18.67 -16 18.34 -16 18 C-15.31292969 17.91363281 -14.62585938 17.82726562 -13.91796875 17.73828125 C-8.42438533 17.00849063 -8.42438533 17.00849063 -4 14 C-2.80351893 10.41055679 -2.05844948 6.83782324 -1.4296875 3.109375 C-1 1 -1 1 0 0 Z " fill="#D8B676" transform="translate(197,273)"/>
<path d="M0 0 C1.07310858 3.27185553 0.89263102 5.42947592 0.0625 8.75 C-0.13214844 9.54921875 -0.32679688 10.3484375 -0.52734375 11.171875 C-0.68332031 11.77515625 -0.83929688 12.3784375 -1 13 C-2.32 12.67 -3.64 12.34 -5 12 C-5 12.66 -5 13.32 -5 14 C-9.62 14 -14.24 14 -19 14 C-18.67 13.01 -18.34 12.02 -18 11 C-16.824375 11.20625 -15.64875 11.4125 -14.4375 11.625 C-10.08266147 12.11144473 -6.97845772 12.10624232 -3 10 C-1.49056619 6.76167569 -0.67782696 3.49887823 0 0 Z " fill="#DBBF80" transform="translate(337,278)"/>
<path d="M0 0 C0.33 0.66 0.66 1.32 1 2 C1.99 2.33 2.98 2.66 4 3 C3.67 4.32 3.34 5.64 3 7 C3.66 7 4.32 7 5 7 C4.67 7.99 4.34 8.98 4 10 C2.35 9.67 0.7 9.34 -1 9 C-1 8.34 -1 7.68 -1 7 C-3.97 6.505 -3.97 6.505 -7 6 C-4.94766315 3.7522025 -3.99332739 2.9977758 -1 2 C-0.67 1.34 -0.34 0.68 0 0 Z " fill="#CAA440" transform="translate(252,172)"/>
<path d="M0 0 C1.36088895 4.08266686 0.68398693 6.75928101 0 11 C-1 12 -1 12 -3.5625 12.0625 C-4.366875 12.041875 -5.17125 12.02125 -6 12 C-6.33 10.68 -6.66 9.36 -7 8 C-6.01 8 -5.02 8 -4 8 C-3.896875 7.05125 -3.79375 6.1025 -3.6875 5.125 C-3 2 -3 2 0 0 Z " fill="#D5B45F" transform="translate(301,337)"/>
<path d="M0 0 C1.98 0 3.96 0 6 0 C7.125 6.625 7.125 6.625 6 10 C5.34 10 4.68 10 4 10 C4 9.34 4 8.68 4 8 C3.34 8 2.68 8 2 8 C3 6 4 4 5 2 C3.68 2 2.36 2 1 2 C1 5.63 1 9.26 1 13 C0.34 12.67 -0.32 12.34 -1 12 C-1.02712066 10.56260487 -1.04645067 9.12506137 -1.0625 7.6875 C-1.07410156 6.88699219 -1.08570313 6.08648437 -1.09765625 5.26171875 C-1 3 -1 3 0 0 Z " fill="#D9BB6C" transform="translate(330,322)"/>
<path d="M0 0 C1.98 1.65 3.96 3.3 6 5 C5.34 5.66 4.68 6.32 4 7 C4.32326553 10.59679066 4.32326553 10.59679066 5 14 C3.68 13.34 2.36 12.68 1 12 C1 11.34 1 10.68 1 10 C-1.475 9.01 -1.475 9.01 -4 8 C-3.360625 7.71125 -2.72125 7.4225 -2.0625 7.125 C0.15206079 6.17176549 0.15206079 6.17176549 1 4 C0.34 4 -0.32 4 -1 4 C-0.67 2.68 -0.34 1.36 0 0 Z " fill="#D4B76A" transform="translate(256,175)"/>
<path d="M0 0 C0.33 0 0.66 0 1 0 C1.33 2.31 1.66 4.62 2 7 C2.99 6.01 3.98 5.02 5 4 C5.08090971 5.62418745 5.13914995 7.24951745 5.1875 8.875 C5.22230469 9.77992188 5.25710937 10.68484375 5.29296875 11.6171875 C5.19628906 12.40351563 5.09960938 13.18984375 5 14 C4.01 14.66 3.02 15.32 2 16 C1.34 15.67 0.68 15.34 0 15 C-1.19156496 9.69211971 -0.83536335 5.29063457 0 0 Z " fill="#C8A341" transform="translate(202,215)"/>
<path d="M0 0 C3.42054006 1.14018002 4.2426201 1.92458518 6 5 C5.6875 7.25 5.6875 7.25 5 9 C2.69 9 0.38 9 -2 9 C-2 8.34 -2 7.68 -2 7 C-2.66 7 -3.32 7 -4 7 C-4.66 5.68 -5.32 4.36 -6 3 C-4.02 3.66 -2.04 4.32 0 5 C0 5.66 0 6.32 0 7 C0.99 6.67 1.98 6.34 3 6 C2.01 5.34 1.02 4.68 0 4 C0 2.68 0 1.36 0 0 Z " fill="#CDB075" transform="translate(231,340)"/>
<path d="M0 0 C8.57142857 -0.28571429 8.57142857 -0.28571429 12 2 C11.01 2.495 11.01 2.495 10 3 C9.34444881 5.52733235 9.34444881 5.52733235 9 8 C7.35 8 5.7 8 4 8 C4 7.34 4 6.68 4 6 C3.34 5.67 2.68 5.34 2 5 C2.99 3.68 3.98 2.36 5 1 C3.35 1 1.7 1 0 1 C0 0.67 0 0.34 0 0 Z " fill="#CFA43C" transform="translate(296,292)"/>
<path d="M0 0 C2 3 2 3 1.625 6.1875 C1.41875 7.115625 1.2125 8.04375 1 9 C0.34 9 -0.32 9 -1 9 C-1.33 9.99 -1.66 10.98 -2 12 C-2.99 11.67 -3.98 11.34 -5 11 C-5 8.36 -5 5.72 -5 3 C-3.68 3.33 -2.36 3.66 -1 4 C-0.67 2.68 -0.34 1.36 0 0 Z " fill="#CCA63D" transform="translate(281,287)"/>
<path d="M0 0 C0.99 0.33 1.98 0.66 3 1 C0.95100645 3.63085784 -0.69992225 5.72033747 -4.06787109 6.44482422 C-6.45814611 6.56370022 -8.79640776 6.53482299 -11.1875 6.4375 C-12.41629883 6.42879883 -12.41629883 6.42879883 -13.66992188 6.41992188 C-19.70424107 6.29575893 -19.70424107 6.29575893 -22 4 C-21.03578125 4.02320313 -20.0715625 4.04640625 -19.078125 4.0703125 C-17.81484375 4.08835937 -16.5515625 4.10640625 -15.25 4.125 C-13.37054688 4.15980469 -13.37054688 4.15980469 -11.453125 4.1953125 C-8.27179508 4.01537302 -6.63478104 3.68998582 -4 2 C-3.67 2.33 -3.34 2.66 -3 3 C-2.01 2.01 -1.02 1.02 0 0 Z " fill="#D0AE5A" transform="translate(192,298)"/>
<path d="M0 0 C0 2.97 0 5.94 0 9 C-2.33333333 9 -4.66666667 9 -7 9 C-6.39285714 3.53571429 -6.39285714 3.53571429 -4.625 1.125 C-3 0 -3 0 0 0 Z " fill="#CFB873" transform="translate(316,277)"/>
<path d="M0 0 C0.33 0 0.66 0 1 0 C1 6.6 1 13.2 1 20 C-2.96 20.495 -2.96 20.495 -7 21 C-8.36125 21.3403125 -8.36125 21.3403125 -9.75 21.6875 C-12.48559781 22.06744414 -13.69913247 21.44869437 -16 20 C-16 19.67 -16 19.34 -16 19 C-14.27185839 18.80327635 -12.54240803 18.61803201 -10.8125 18.4375 C-9.84957031 18.33308594 -8.88664062 18.22867188 -7.89453125 18.12109375 C-5 18 -5 18 0 19 C0 12.73 0 6.46 0 0 Z " fill="#E8D384" transform="translate(289,217)"/>
<path d="M0 0 C2.33294775 -0.04241723 4.66702567 -0.04092937 7 0 C8 1 8 1 8.0625 4.5625 C8.041875 5.696875 8.02125 6.83125 8 8 C7.67 8 7.34 8 7 8 C6.67 6.35 6.34 4.7 6 3 C4.68 2.67 3.36 2.34 2 2 C1.67 5.3 1.34 8.6 1 12 C-2.3 11.67 -5.6 11.34 -9 11 C-9 10.67 -9 10.34 -9 10 C-4.545 9.505 -4.545 9.505 0 9 C0 6.03 0 3.06 0 0 Z " fill="#E5D495" transform="translate(345,322)"/>
<path d="M0 0 C0 0.33 0 0.66 0 1 C-1.98 1 -3.96 1 -6 1 C-6 4.63 -6 8.26 -6 12 C-6.99 11.67 -7.98 11.34 -9 11 C-9 10.34 -9 9.68 -9 9 C-9.66 9 -10.32 9 -11 9 C-11 7.35 -11 5.7 -11 4 C-9.68 3.34 -8.36 2.68 -7 2 C-7 1.34 -7 0.68 -7 0 C-4.3333581 -1.33332095 -2.83319697 -0.67102033 0 0 Z " fill="#D5BD72" transform="translate(201,252)"/>
<path d="M0 0 C0.99 0.33 1.98 0.66 3 1 C2.67 2.32 2.34 3.64 2 5 C-0.97 5 -3.94 5 -7 5 C-7 8.3 -7 11.6 -7 15 C-9.375 15.625 -9.375 15.625 -12 16 C-12.66 15.34 -13.32 14.68 -14 14 C-13.67 13.01 -13.34 12.02 -13 11 C-13 11.66 -13 12.32 -13 13 C-11.35 13 -9.7 13 -8 13 C-8 10.03 -8 7.06 -8 4 C-5.03 4 -2.06 4 1 4 C0.67 2.68 0.34 1.36 0 0 Z " fill="#CAA654" transform="translate(343,333)"/>
<path d="M0 0 C0.66 0 1.32 0 2 0 C3.57170996 3.14341993 3.23175783 6.55771451 3 10 C2.67 10.99 2.34 11.98 2 13 C-2.62 13 -7.24 13 -12 13 C-11.67 12.34 -11.34 11.68 -11 11 C-10.06027344 11.01740234 -10.06027344 11.01740234 -9.1015625 11.03515625 C-7.87566406 11.04869141 -7.87566406 11.04869141 -6.625 11.0625 C-5.40683594 11.07990234 -5.40683594 11.07990234 -4.1640625 11.09765625 C-1.95062858 11.14466334 -1.95062858 11.14466334 0 10 C0 6.7 0 3.4 0 0 Z " fill="#CFB364" transform="translate(358,277)"/>
<path d="M0 0 C0.66 0 1.32 0 2 0 C2.02701408 2.10409639 2.04640223 4.20829178 2.0625 6.3125 C2.07410156 7.48425781 2.08570313 8.65601563 2.09765625 9.86328125 C2 13 2 13 1 16 C-3.05431692 17.15837626 -5.21812119 16.83691257 -9 15 C-9 14.34 -9 13.68 -9 13 C-7.88625 13.020625 -6.7725 13.04125 -5.625 13.0625 C-2.16784079 13.26380718 -2.16784079 13.26380718 0 12 C0 8.04 0 4.08 0 0 Z " fill="#CCB368" transform="translate(215,277)"/>
<path d="M0 0 C1.2065625 0.0309375 1.2065625 0.0309375 2.4375 0.0625 C2.4375 2.3725 2.4375 4.6825 2.4375 7.0625 C0.4575 7.3925 -1.5225 7.7225 -3.5625 8.0625 C-3.60491723 5.72955225 -3.60342937 3.39547433 -3.5625 1.0625 C-2.5625 0.0625 -2.5625 0.0625 0 0 Z " fill="#C9A95D" transform="translate(216.5625,321.9375)"/>
<path d="M0 0 C1.32 0 2.64 0 4 0 C5.125 2.25 5.125 2.25 6 5 C5.125 7.3125 5.125 7.3125 4 9 C3.01 8.34 2.02 7.68 1 7 C0.01 7.66 -0.98 8.32 -2 9 C-1.34 6.03 -0.68 3.06 0 0 Z " fill="#C6A13E" transform="translate(247,162)"/>
<path d="M0 0 C0.33 0 0.66 0 1 0 C1 4.29 1 8.58 1 13 C1.99 13 2.98 13 4 13 C4.33 12.34 4.66 11.68 5 11 C5 13.31 5 15.62 5 18 C3.35 18 1.7 18 0 18 C0 12.06 0 6.12 0 0 Z " fill="#C5A44A" transform="translate(214,329)"/>
<path d="M0 0 C0.33 0.66 0.66 1.32 1 2 C2.32 2 3.64 2 5 2 C5 3.32 5 4.64 5 6 C9.29 6.66 13.58 7.32 18 8 C18 8.33 18 8.66 18 9 C7.17410072 9.62158273 7.17410072 9.62158273 2.8125 7.3125 C0.84085249 4.79694972 0.2634368 3.16124161 0 0 Z " fill="#DAC278" transform="translate(140,291)"/>
<path d="M0 0 C0.33 0 0.66 0 1 0 C1.02693575 2.12493141 1.04636628 4.24995912 1.0625 6.375 C1.07410156 7.55835938 1.08570313 8.74171875 1.09765625 9.9609375 C1 13 1 13 0 15 C-2.4375 14.625 -2.4375 14.625 -5 14 C-5.33 13.34 -5.66 12.68 -6 12 C-4.35 12 -2.7 12 -1 12 C-1.01160156 11.21753906 -1.02320313 10.43507813 -1.03515625 9.62890625 C-1.04417969 8.61699219 -1.05320312 7.60507812 -1.0625 6.5625 C-1.07410156 5.55316406 -1.08570313 4.54382813 -1.09765625 3.50390625 C-1 1 -1 1 0 0 Z " fill="#D2B875" transform="translate(284,334)"/>
<path d="M0 0 C0.66 0 1.32 0 2 0 C2.66 1.98 3.32 3.96 4 6 C3.34 6.66 2.68 7.32 2 8 C1.30251417 9.31747324 0.63040043 10.64914193 0 12 C-0.99 10.35 -1.98 8.7 -3 7 C-3 8.98 -3 10.96 -3 13 C-3.33 13 -3.66 13 -4 13 C-4 10.69 -4 8.38 -4 6 C-2.68 5.67 -1.36 5.34 0 5 C0 3.35 0 1.7 0 0 Z " fill="#DFBD73" transform="translate(271,328)"/>
<path d="M0 0 C0.99 0.33 1.98 0.66 3 1 C0.70624085 5.85737231 -2.21956762 7.90790705 -7 10 C-9.9375 10.75 -9.9375 10.75 -12 11 C-11.67 10.01 -11.34 9.02 -11 8 C-9.02 8 -7.04 8 -5 8 C-5 6.68 -5 5.36 -5 4 C-2.5 2.3125 -2.5 2.3125 0 1 C0 0.67 0 0.34 0 0 Z " fill="#D6BB79" transform="translate(256,293)"/>
<path d="M0 0 C2.32590854 3.63423209 2.16265833 6.77088331 2 11 C1.34 11 0.68 11 0 11 C0 10.34 0 9.68 0 9 C-0.66 9 -1.32 9 -2 9 C-4.125 4.375 -4.125 4.375 -3 1 C-2.01 1.33 -1.02 1.66 0 2 C0 1.34 0 0.68 0 0 Z " fill="#D0A63C" transform="translate(256,280)"/>
<path d="M0 0 C-0.5775 0.12375 -1.155 0.2475 -1.75 0.375 C-7.49601879 1.97111633 -10.71626683 5.07440024 -14 10 C-14.36666667 4.5 -14.36666667 4.5 -12.625 2.125 C-11 1 -11 1 -9 1 C-9 0.34 -9 -0.32 -9 -1 C-5.38055101 -2.34053666 -3.42632833 -1.61798838 0 0 Z " fill="#D9BC76" transform="translate(282,201)"/>
<path d="M0 0 C1.65 0 3.3 0 5 0 C5 0.66 5 1.32 5 2 C6.32 2.33 7.64 2.66 9 3 C8.67 4.32 8.34 5.64 8 7 C6.33388095 7.042721 4.66617115 7.04063832 3 7 C2 6 2 6 1.9375 3.4375 C1.958125 2.633125 1.97875 1.82875 2 1 C1.34 0.67 0.68 0.34 0 0 Z " fill="#CCA539" transform="translate(258,181)"/>
<path d="M0 0 C0.99 0 1.98 0 3 0 C3.0825 0.94875 3.165 1.8975 3.25 2.875 C3.65074923 6.10461791 3.65074923 6.10461791 6.0625 7.375 C6.701875 7.58125 7.34125 7.7875 8 8 C6.68 8.33 5.36 8.66 4 9 C3.67 8.34 3.34 7.68 3 7 C1.35636866 6.27840576 -0.31050386 5.60648579 -2 5 C-1.34 3.35 -0.68 1.7 0 0 Z " fill="#CBA849" transform="translate(227,338)"/>
<path d="M0 0 C2.375 2 2.375 2 4 4 C3.1875 5.9375 3.1875 5.9375 2 8 C1.01 8.33 0.02 8.66 -1 9 C-1.66 8.34 -2.32 7.68 -3 7 C-1.68 7 -0.36 7 1 7 C0.67 5.68 0.34 4.36 0 3 C-3.63 2.67 -7.26 2.34 -11 2 C-11 1.67 -11 1.34 -11 1 C-7.2552458 0.11888137 -3.84133662 -0.40865283 0 0 Z " fill="#DFC67D" transform="translate(166,321)"/>
<path d="M0 0 C1.65 0 3.3 0 5 0 C3.02793345 1.54948086 1.22731477 2.8966751 -1.0625 3.9375 C-3.42457044 5.23282895 -4.52010895 6.78016342 -6 9 C-6.33 8.01 -6.66 7.02 -7 6 C-7.66 5.34 -8.32 4.68 -9 4 C-7.875 2.4375 -7.875 2.4375 -6 1 C-2.8125 1.3125 -2.8125 1.3125 0 2 C0 1.34 0 0.68 0 0 Z " fill="#D7BD68" transform="translate(155,277)"/>
<path d="M0 0 C1.32 0.66 2.64 1.32 4 2 C3.38125 2.0825 2.7625 2.165 2.125 2.25 C-0.16352629 2.79948083 -0.16352629 2.79948083 -1.125 4.9375 C-1.41375 5.618125 -1.7025 6.29875 -2 7 C-4 9 -4 9 -6.625 9.125 C-7.40875 9.08375 -8.1925 9.0425 -9 9 C-6.21000549 5.51250686 -3.74764169 2.49842779 0 0 Z " fill="#D4B770" transform="translate(248,193)"/>
<path d="M0 0 C1.45606519 4.52092968 0.27032841 7.51648796 -1 12 C-1.66 12 -2.32 12 -3 12 C-3 14.64 -3 17.28 -3 20 C-3.66 19.67 -4.32 19.34 -5 19 C-4.5464821 11.97047248 -2.87940913 6.4150557 0 0 Z " fill="#D5BE82" transform="translate(205,203)"/>
<path d="M0 0 C0.66 0.33 1.32 0.66 2 1 C-0.07945307 8.46156689 -0.07945307 8.46156689 -4.3125 10.9375 C-7.55617967 11.87211956 -10.65176082 12.59167815 -14 13 C-12.66876597 10.33753193 -11.3235622 10.05398348 -8.625 8.875 C-7.83351562 8.52179688 -7.04203125 8.16859375 -6.2265625 7.8046875 C-4 7 -4 7 -1 7 C-1.020625 6.030625 -1.04125 5.06125 -1.0625 4.0625 C-1 1 -1 1 0 0 Z " fill="#D2BF7A" transform="translate(165,259)"/>
<path d="M0 0 C1.98 0 3.96 0 6 0 C6.33 0.66 6.66 1.32 7 2 C6.14148438 2.13728516 6.14148438 2.13728516 5.265625 2.27734375 C2.44544295 3.17688458 0.92415738 4.56952241 -1.25 6.5625 C-1.95640625 7.20316406 -2.6628125 7.84382812 -3.390625 8.50390625 C-3.92171875 8.99761719 -4.4528125 9.49132812 -5 10 C-5.33 9.01 -5.66 8.02 -6 7 C-4.75 4.8125 -4.75 4.8125 -3 3 C-2.01 3 -1.02 3 0 3 C0 2.01 0 1.02 0 0 Z " fill="#CFB26A" transform="translate(244,203)"/>
<path d="M0 0 C0.33 0 0.66 0 1 0 C1 3.96 1 7.92 1 12 C-0.98 12 -2.96 12 -5 12 C-4.67 9.69 -4.34 7.38 -4 5 C-3.67 5 -3.34 5 -3 5 C-3 6.98 -3 8.96 -3 11 C-2.87625 10.29875 -2.7525 9.5975 -2.625 8.875 C-1.96161655 5.82343613 -1.02788045 2.94659062 0 0 Z " fill="#C9A652" transform="translate(249,335)"/>
<path d="M0 0 C1.32 0.33 2.64 0.66 4 1 C4.12375 1.61875 4.2475 2.2375 4.375 2.875 C4.87197356 5.19120832 4.87197356 5.19120832 7 7 C4 9 4 9 1 9 C0.67 6.03 0.34 3.06 0 0 Z " fill="#CBA23E" transform="translate(152,326)"/>
<path d="M0 0 C0 1.98 0 3.96 0 6 C-1.32 6.33 -2.64 6.66 -4 7 C-4 6.34 -4 5.68 -4 5 C-5.98 5 -7.96 5 -10 5 C-10 4.01 -10 3.02 -10 2 C-8.6078125 2.061875 -8.6078125 2.061875 -7.1875 2.125 C-4.10564827 2.00414307 -2.65832991 0 0 0 Z " fill="#D8BA67" transform="translate(308,287)"/>
<path d="M0 0 C2.11922604 3.44374231 2 6.02863504 2 10 C2.99 11.485 2.99 11.485 4 13 C3.01 13.495 3.01 13.495 2 14 C-0.86544183 10.76080489 -1.34536289 8.20838141 -2 4 C-2.66 3.67 -3.32 3.34 -4 3 C-2.68 2.01 -1.36 1.02 0 0 Z " fill="#D3BB80" transform="translate(342,274)"/>
<path d="M0 0 C1.37478516 0.01740234 1.37478516 0.01740234 2.77734375 0.03515625 C3.69644531 0.04417969 4.61554688 0.05320312 5.5625 0.0625 C6.27277344 0.07410156 6.98304688 0.08570313 7.71484375 0.09765625 C7.38484375 1.08765625 7.05484375 2.07765625 6.71484375 3.09765625 C4.07484375 3.09765625 1.43484375 3.09765625 -1.28515625 3.09765625 C-1.61515625 4.41765625 -1.94515625 5.73765625 -2.28515625 7.09765625 C-2.94515625 6.43765625 -3.60515625 5.77765625 -4.28515625 5.09765625 C-3.53567763 0.15109733 -3.53567763 0.15109733 0 0 Z " fill="#DBC685" transform="translate(154.28515625,339.90234375)"/>
<path d="M0 0 C-3.7602471 2.54636399 -6.83055518 3.54722217 -11.3125 4.1875 C-12.91544922 4.42533203 -12.91544922 4.42533203 -14.55078125 4.66796875 C-15.76314453 4.83232422 -15.76314453 4.83232422 -17 5 C-16 3 -16 3 -14.109375 2.18359375 C-2.79107505 -1.39553753 -2.79107505 -1.39553753 0 0 Z " fill="#E8D398" transform="translate(257,239)"/>
<path d="M0 0 C0.33 0 0.66 0 1 0 C0.67 2.97 0.34 5.94 0 9 C-0.66 9 -1.32 9 -2 9 C-2 9.99 -2 10.98 -2 12 C-1.01 12.33 -0.02 12.66 1 13 C1 13.33 1 13.66 1 14 C-0.65 14 -2.3 14 -4 14 C-4.33 12.68 -4.66 11.36 -5 10 C-4.34 10 -3.68 10 -3 10 C-2.01 6.7 -1.02 3.4 0 0 Z " fill="#D9B375" transform="translate(182,335)"/>
<path d="M0 0 C3 1 3 1 4.203125 2.92578125 C4.54859375 3.71339844 4.8940625 4.50101562 5.25 5.3125 C5.60578125 6.09238281 5.9615625 6.87226563 6.328125 7.67578125 C7.0711335 10.24607227 6.88750996 11.51383429 6 14 C5.67 12.68 5.34 11.36 5 10 C4.34 10 3.68 10 3 10 C2.49596232 8.70990357 1.99690074 7.41786211 1.5 6.125 C1.2215625 5.40570313 0.943125 4.68640625 0.65625 3.9453125 C0 2 0 2 0 0 Z " fill="#D0AE66" transform="translate(311,328)"/>
<path d="M0 0 C0 3 0 3 -1.20703125 4.67578125 C-3.51694102 6.38179304 -4.84890819 6.31091704 -7.6875 6.1875 C-8.49574219 6.16042969 -9.30398437 6.13335937 -10.13671875 6.10546875 C-10.75160156 6.07066406 -11.36648437 6.03585937 -12 6 C-12 5.01 -12 4.02 -12 3 C-10.7625 3.061875 -9.525 3.12375 -8.25 3.1875 C-5.21788698 3.20362826 -4.17751704 3.10651023 -1.5 1.5 C-1.005 1.005 -0.51 0.51 0 0 Z " fill="#DBBD80" transform="translate(163,283)"/>
<path d="M0 0 C0.99 0.66 1.98 1.32 3 2 C3 2.99 3 3.98 3 5 C2.34 5 1.68 5 1 5 C0.34 6.32 -0.32 7.64 -1 9 C-1.66 9 -2.32 9 -3 9 C-3 9.66 -3 10.32 -3 11 C-4.32 10.67 -5.64 10.34 -7 10 C-6.01 10 -5.02 10 -4 10 C-4.33 9.01 -4.66 8.02 -5 7 C-4.01 7 -3.02 7 -2 7 C-2 6.34 -2 5.68 -2 5 C-1.34 5 -0.68 5 0 5 C0 3.35 0 1.7 0 0 Z " fill="#D8C587" transform="translate(175,239)"/>
<path d="M0 0 C0.66 1.32 1.32 2.64 2 4 C4.24362573 4.2284549 4.24362573 4.2284549 6.125 2 C6.74375 1.34 7.3625 0.68 8 0 C7.67 2.31 7.34 4.62 7 7 C5.0085944 7.38133299 3.00720923 7.71325582 1 8 C0 7 0 7 -0.0625 3.4375 C-0.041875 2.303125 -0.02125 1.16875 0 0 Z " fill="#E4CD7F" transform="translate(219,323)"/>
<path d="M0 0 C0.66 0 1.32 0 2 0 C2.08131463 1.43655854 2.13933559 2.8744483 2.1875 4.3125 C2.22230469 5.11300781 2.25710938 5.91351563 2.29296875 6.73828125 C1.93801608 9.47851584 1.10633718 10.29171079 -1 12 C-2.36884358 7.48281619 -1.47075246 4.41225737 0 0 Z " fill="#CEA33B" transform="translate(281,325)"/>
<path d="M0 0 C0.99 0.66 1.98 1.32 3 2 C3 2.99 3 3.98 3 5 C3.99 4.67 4.98 4.34 6 4 C6.33 6.31 6.66 8.62 7 11 C3.73991357 7.83047153 0.77762123 4.60062011 -2 1 C-1.34 0.67 -0.68 0.34 0 0 Z " fill="#D7BC70" transform="translate(246,277)"/>
<path d="M0 0 C1.875 0.1875 1.875 0.1875 4 1 C5.25 3.5625 5.25 3.5625 6 6 C3.69 6 1.38 6 -1 6 C-0.67 4.02 -0.34 2.04 0 0 Z " fill="#C9A240" transform="translate(273,333)"/>
<path d="M0 0 C1.32 0 2.64 0 4 0 C4.33 1.98 4.66 3.96 5 6 C4.01 6 3.02 6 2 6 C2 6.66 2 7.32 2 8 C1.01 7.67 0.02 7.34 -1 7 C-1 6.34 -1 5.68 -1 5 C0.32 4.67 1.64 4.34 3 4 C3 3.34 3 2.68 3 2 C2.01 2 1.02 2 0 2 C0 1.34 0 0.68 0 0 Z " fill="#C8A33D" transform="translate(164,334)"/>
<path d="M0 0 C0.99 1.32 1.98 2.64 3 4 C2.67 4.33 2.34 4.66 2 5 C1.84417697 6.34015221 1.74955858 7.68758903 1.68359375 9.03515625 C1.62075195 10.24848633 1.62075195 10.24848633 1.55664062 11.48632812 C1.51732422 12.33646484 1.47800781 13.18660156 1.4375 14.0625 C1.39431641 14.91650391 1.35113281 15.77050781 1.30664062 16.65039062 C1.20023298 18.76672037 1.09958269 20.88333813 1 23 C0.67 23 0.34 23 0 23 C0 15.41 0 7.82 0 0 Z " fill="#DBBC77" transform="translate(244,323)"/>
<path d="M0 0 C0.66 0.33 1.32 0.66 2 1 C2 1.66 2 2.32 2 3 C3.32 3.66 4.64 4.32 6 5 C5.34 6.32 4.68 7.64 4 9 C3.67 7.68 3.34 6.36 3 5 C0.69 5 -1.62 5 -4 5 C-3.34 4.01 -2.68 3.02 -2 2 C-1.34 2 -0.68 2 0 2 C0 1.34 0 0.68 0 0 Z " fill="#D3B05C" transform="translate(252,271)"/>
<path d="M0 0 C2.125 0.9375 2.125 0.9375 4 2 C3.67 2.66 3.34 3.32 3 4 C2.01 3.67 1.02 3.34 0 3 C0 5.31 0 7.62 0 10 C-2 8 -2 8 -2.125 4.375 C-2.08375 3.26125 -2.0425 2.1475 -2 1 C-1.34 0.67 -0.68 0.34 0 0 Z " fill="#C9A84F" transform="translate(241,148)"/>
<path d="M0 0 C1 1 1 1 1.0625 3.5625 C1.041875 4.366875 1.02125 5.17125 1 6 C0.34 5.01 -0.32 4.02 -1 3 C-3.19454681 2.42006301 -3.19454681 2.42006301 -5.625 2.3125 C-6.44226563 2.24675781 -7.25953125 2.18101562 -8.1015625 2.11328125 C-8.72804688 2.07589844 -9.35453125 2.03851563 -10 2 C-10.33 2.66 -10.66 3.32 -11 4 C-11 3.01 -11 2.02 -11 1 C-7.26835686 0.12196632 -3.83319229 -0.17423601 0 0 Z " fill="#DBC185" transform="translate(313,341)"/>
<path d="M0 0 C0.99 0.144375 1.98 0.28875 3 0.4375 C6.99409465 1.00925179 10.99532937 1.50819834 15 2 C15 2.33 15 2.66 15 3 C10.38 3 5.76 3 1 3 C0.67 2.01 0.34 1.02 0 0 Z " fill="#C9AA5B" transform="translate(174,290)"/>
<path d="M0 0 C1.07310858 3.27185553 0.89263102 5.42947592 0.0625 8.75 C-0.22947266 9.94882812 -0.22947266 9.94882812 -0.52734375 11.171875 C-0.68332031 11.77515625 -0.83929688 12.3784375 -1 13 C-1.99 12.67 -2.98 12.34 -4 12 C-3.52309796 10.37433394 -3.04340334 8.74948689 -2.5625 7.125 C-2.29566406 6.22007812 -2.02882813 5.31515625 -1.75390625 4.3828125 C-1 2 -1 2 0 0 Z " fill="#D3B973" transform="translate(337,278)"/>
<path d="M0 0 C0.12375 1.093125 0.2475 2.18625 0.375 3.3125 C0.75464801 7.07381802 0.75464801 7.07381802 3 10 C0.15616877 8.7251791 -2.13754018 7.54862922 -4 5 C-3.8125 2.875 -3.8125 2.875 -3 1 C-1 0 -1 0 0 0 Z " fill="#C9A649" transform="translate(341,277)"/>
<path d="M0 0 C0.66 0 1.32 0 2 0 C2 1.32 2 2.64 2 4 C2.66 4 3.32 4 4 4 C5.26237731 6.52475462 5.09856404 8.31200466 5.0625 11.125 C5.05347656 12.03507813 5.04445313 12.94515625 5.03515625 13.8828125 C5.02355469 14.58148438 5.01195312 15.28015625 5 16 C4.67 16 4.34 16 4 16 C3.81824219 15.14728516 3.81824219 15.14728516 3.6328125 14.27734375 C2.58677946 9.45754536 1.40795516 4.7267066 0 0 Z " fill="#CEB26B" transform="translate(286,208)"/>
<path d="M0 0 C-2 2 -2 2 -5.5 2.9375 C-9.23685745 3.6673234 -9.23685745 3.6673234 -11 7 C-11 5.02 -11 3.04 -11 1 C-9.5437328 0.63743142 -8.08488815 0.28520207 -6.625 -0.0625 C-5.40683594 -0.35833984 -5.40683594 -0.35833984 -4.1640625 -0.66015625 C-2 -1 -2 -1 0 0 Z " fill="#E2C686" transform="translate(239,188)"/>
<path d="M0 0 C1.98 0.66 3.96 1.32 6 2 C6 2.99 6 3.98 6 5 C7.65 5 9.3 5 11 5 C11 5.33 11 5.66 11 6 C8.69 6 6.38 6 4 6 C4 5.34 4 4.68 4 4 C3.34 4 2.68 4 2 4 C1.34 2.68 0.68 1.36 0 0 Z " fill="#E0C782" transform="translate(225,343)"/>
<path d="M0 0 C1.32 0.33 2.64 0.66 4 1 C3.01 1 2.02 1 1 1 C1 1.66 1 2.32 1 3 C1.99 3 2.98 3 4 3 C4 3.66 4 4.32 4 5 C1.69 5.33 -0.62 5.66 -3 6 C-3.33 5.34 -3.66 4.68 -4 4 C-2.68 4 -1.36 4 0 4 C0 2.68 0 1.36 0 0 Z " fill="#D4B160" transform="translate(163,333)"/>
<path d="M0 0 C2.97 0.495 2.97 0.495 6 1 C6 1.66 6 2.32 6 3 C6.99 3 7.98 3 9 3 C8.67 4.32 8.34 5.64 8 7 C6.66382648 6.02471263 5.3311249 5.04466681 4 4.0625 C3.2575 3.51722656 2.515 2.97195313 1.75 2.41015625 C1.1725 1.94480469 0.595 1.47945313 0 1 C0 0.67 0 0.34 0 0 Z " fill="#D8BA64" transform="translate(234,271)"/>
<path d="M0 0 C0.33 0.99 0.66 1.98 1 3 C0.34 3 -0.32 3 -1 3 C-1 3.66 -1 4.32 -1 5 C-0.01 5 0.98 5 2 5 C2.33 6.65 2.66 8.3 3 10 C-0.24299151 7.61042731 -2.50902342 5.7952131 -4 2 C-2.68 1.34 -1.36 0.68 0 0 Z " fill="#D8BC65" transform="translate(260,207)"/>
<path d="M0 0 C0.66 0 1.32 0 2 0 C2 0.66 2 1.32 2 2 C2.639375 2.268125 3.27875 2.53625 3.9375 2.8125 C6 4 6 4 7 7 C5.0625 6.625 5.0625 6.625 3 6 C2.67 5.34 2.34 4.68 2 4 C1.01 4.495 1.01 4.495 0 5 C0 3.35 0 1.7 0 0 Z " fill="#DABE7B" transform="translate(252,196)"/>
<path d="M0 0 C0.33 0.66 0.66 1.32 1 2 C1.66 2.33 2.32 2.66 3 3 C-3.4 6.07692308 -3.4 6.07692308 -6.4375 5.6875 C-6.953125 5.460625 -7.46875 5.23375 -8 5 C-6 3 -6 3 -2.875 2.875 C-1.92625 2.91625 -0.9775 2.9575 0 3 C0 2.01 0 1.02 0 0 Z " fill="#DCBC75" transform="translate(305,298)"/>
<path d="M0 0 C0.33 0.66 0.66 1.32 1 2 C1.763125 1.9175 2.52625 1.835 3.3125 1.75 C6 2 6 2 7.8125 4 C8.204375 4.66 8.59625 5.32 9 6 C4.12637153 5.54663921 1.60957611 4.2910841 -2 1 C-1.34 0.67 -0.68 0.34 0 0 Z " fill="#D3BA70" transform="translate(197,298)"/>
<path d="M0 0 C0.66 0 1.32 0 2 0 C2.33 0.99 2.66 1.98 3 3 C-0.12180401 3.96661363 -2.52083795 3.98988909 -5.75 3.5625 C-6.94882812 3.40974609 -6.94882812 3.40974609 -8.171875 3.25390625 C-8.77515625 3.17011719 -9.3784375 3.08632812 -10 3 C-10 2.67 -10 2.34 -10 2 C-9.04287109 1.90912109 -9.04287109 1.90912109 -8.06640625 1.81640625 C-6.82697266 1.69072266 -6.82697266 1.69072266 -5.5625 1.5625 C-4.73878906 1.48128906 -3.91507812 1.40007812 -3.06640625 1.31640625 C-1.01337975 1.21069185 -1.01337975 1.21069185 0 0 Z " fill="#E3BF68" transform="translate(291,241)"/>
<path d="M0 0 C0 0.66 0 1.32 0 2 C-3.6441774 4.4294516 -5.71241272 4.16179575 -10 4 C-6.58908673 0.88145073 -4.68377325 -0.53528837 0 0 Z " fill="#CBAA5D" transform="translate(262,238)"/>
<path d="M0 0 C0.66 0 1.32 0 2 0 C3.625 2.5 3.625 2.5 5 5 C2.36 4.67 -0.28 4.34 -3 4 C-1.625 2 -1.625 2 0 0 Z " fill="#CEA63B" transform="translate(226,237)"/>
<path d="M0 0 C1.32 0.33 2.64 0.66 4 1 C3.2884375 1.8353125 3.2884375 1.8353125 2.5625 2.6875 C0.87604004 5.18346074 0.41046893 7.0446237 0 10 C-0.33 10 -0.66 10 -1 10 C-2.25 3.375 -2.25 3.375 0 0 Z " fill="#D7C072" transform="translate(234,213)"/>
<path d="M0 0 C1.98 1.65 3.96 3.3 6 5 C4.02 5.99 4.02 5.99 2 7 C1.67 6.01 1.34 5.02 1 4 C0.34 4 -0.32 4 -1 4 C-0.67 2.68 -0.34 1.36 0 0 Z " fill="#D0B05D" transform="translate(256,175)"/>
<path d="M0 0 C1 3 1 3 0 6 C-1.32 5.34 -2.64 4.68 -4 4 C-3.34 4 -2.68 4 -2 4 C-2 3.34 -2 2.68 -2 2 C-3.65 2 -5.3 2 -7 2 C-4.35261084 0.5393715 -3.10551666 0 0 0 Z " fill="#DBBB6B" transform="translate(235,321)"/>
<path d="M0 0 C0.94552734 0.16242188 0.94552734 0.16242188 1.91015625 0.328125 C2.57015625 1.318125 3.23015625 2.308125 3.91015625 3.328125 C2.65203125 3.369375 1.39390625 3.410625 0.09765625 3.453125 C-0.61003906 3.47632813 -1.31773437 3.49953125 -2.046875 3.5234375 C-4.08984375 3.328125 -4.08984375 3.328125 -7.08984375 1.328125 C-5.19856033 -0.56315842 -2.51916649 0.0914398 0 0 Z " fill="#D1A53A" transform="translate(163.08984375,323.671875)"/>
<path d="M0 0 C0 2.64 0 5.28 0 8 C-0.33 8 -0.66 8 -1 8 C-1.33 6.02 -1.66 4.04 -2 2 C-3.98 2 -5.96 2 -8 2 C-5.14066998 -0.85933002 -3.8625627 -1.2875209 0 0 Z " fill="#CBAC5C" transform="translate(165,275)"/>
<path d="M0 0 C0.66 0 1.32 0 2 0 C0.66666667 4 -0.66666667 8 -2 12 C-2.33 12 -2.66 12 -3 12 C-3.125 5.375 -3.125 5.375 -2 2 C-1.34 2 -0.68 2 0 2 C0 1.34 0 0.68 0 0 Z " fill="#D8C47F" transform="translate(211,206)"/>
<path d="M0 0 C0.625 1.8125 0.625 1.8125 1 4 C0.01 5.485 0.01 5.485 -1 7 C-1.99 6.67 -2.98 6.34 -4 6 C-4 4.68 -4 3.36 -4 2 C-2.68 1.34 -1.36 0.68 0 0 Z " fill="#D1A94B" transform="translate(241,180)"/>
<path d="M0 0 C0 0.66 0 1.32 0 2 C0.66 2 1.32 2 2 2 C2 3.98 2 5.96 2 8 C1.67 7.01 1.34 6.02 1 5 C-0.31647119 4.30062468 -1.65022151 3.63270867 -3 3 C-3.33 2.34 -3.66 1.68 -4 1 C-2 0 -2 0 0 0 Z " fill="#CFB15D" transform="translate(245,157)"/>
<path d="M0 0 C1.98 0 3.96 0 6 0 C6.33 0.99 6.66 1.98 7 3 C4.69 2.67 2.38 2.34 0 2 C0 2.66 0 3.32 0 4 C-0.66 4 -1.32 4 -2 4 C-1.34 2.68 -0.68 1.36 0 0 Z " fill="#D3BD71" transform="translate(188,322)"/>
<path d="M0 0 C2.4375 0.375 2.4375 0.375 5 1 C5.33 1.66 5.66 2.32 6 3 C1.545 3.495 1.545 3.495 -3 4 C-2.01 2.68 -1.02 1.36 0 0 Z " fill="#CDB270" transform="translate(154,235)"/>
<path d="M0 0 C1.9375 0.75 1.9375 0.75 4 2 C4.75 4.125 4.75 4.125 5 6 C4.01 6.33 3.02 6.66 2 7 C1.67 6.01 1.34 5.02 1 4 C0.34 3.67 -0.32 3.34 -1 3 C-0.67 2.01 -0.34 1.02 0 0 Z " fill="#D1A43D" transform="translate(251,198)"/>
<path d="M0 0 C0.33 0.66 0.66 1.32 1 2 C2.98 2 4.96 2 7 2 C6.67 2.99 6.34 3.98 6 5 C4.35 4.67 2.7 4.34 1 4 C0.67 2.68 0.34 1.36 0 0 Z " fill="#D4C285" transform="translate(329,344)"/>
<path d="M0 0 C0.99 0.33 1.98 0.66 3 1 C3 1.66 3 2.32 3 3 C3.99 3.33 4.98 3.66 6 4 C6.66 4.66 7.32 5.32 8 6 C5.6875 6.25 5.6875 6.25 3 6 C1.02389614 3.95575462 0 2.8823175 0 0 Z " fill="#DDC586" transform="translate(196,343)"/>
<path d="M0 0 C1.2065625 0.0309375 1.2065625 0.0309375 2.4375 0.0625 C1.1175 0.3925 -0.2025 0.7225 -1.5625 1.0625 C-1.5625 1.7225 -1.5625 2.3825 -1.5625 3.0625 C-0.5725 3.0625 0.4175 3.0625 1.4375 3.0625 C1.4375 4.0525 1.4375 5.0425 1.4375 6.0625 C0.1175 5.7325 -1.2025 5.4025 -2.5625 5.0625 C-3.125 3.125 -3.125 3.125 -3.5625 1.0625 C-2.5625 0.0625 -2.5625 0.0625 0 0 Z " fill="#CCA957" transform="translate(155.5625,341.9375)"/>
<path d="M0 0 C0.99 0.66 1.98 1.32 3 2 C0.60236815 4.39763185 -0.33273498 4.34280586 -3.625 4.625 C-4.44226563 4.69976562 -5.25953125 4.77453125 -6.1015625 4.8515625 C-6.72804687 4.90054687 -7.35453125 4.94953125 -8 5 C-8 4.34 -8 3.68 -8 3 C-6.865625 2.87625 -5.73125 2.7525 -4.5625 2.625 C-3.386875 2.41875 -2.21125 2.2125 -1 2 C-0.67 1.34 -0.34 0.68 0 0 Z " fill="#DCC689" transform="translate(215,300)"/>
<path d="M0 0 C1.25541557 3.76624671 0.37061958 5.37188934 -1 9 C-1.66 9 -2.32 9 -3 9 C-2.25 2.25 -2.25 2.25 0 0 Z " fill="#C9AC68" transform="translate(143,279)"/>
<path d="M0 0 C3.26954202 0.56371414 4.82575883 1.49962266 7 4 C4.69 3.67 2.38 3.34 0 3 C0 2.01 0 1.02 0 0 Z " fill="#CAAD48" transform="translate(217,197)"/>
<path d="M0 0 C0.99 0 1.98 0 3 0 C3.33 1.98 3.66 3.96 4 6 C2.02 6.99 2.02 6.99 0 8 C0.33 6.02 0.66 4.04 1 2 C0.34 1.67 -0.32 1.34 -1 1 C-0.67 0.67 -0.34 0.34 0 0 Z " fill="#DCCA89" transform="translate(257,153)"/>
<path d="M0 0 C3 3.625 3 3.625 3 7 C1.02 7 -0.96 7 -3 7 C-2.01 6.67 -1.02 6.34 0 6 C0 4.02 0 2.04 0 0 Z " fill="#D9C383" transform="translate(318,341)"/>
<path d="M0 0 C1.32 0 2.64 0 4 0 C4 1.65 4 3.3 4 5 C2.68 5 1.36 5 0 5 C0 3.35 0 1.7 0 0 Z " fill="#CDA642" transform="translate(331,341)"/>
<path d="M0 0 C0.99 0.33 1.98 0.66 3 1 C1.37660195 2.70884005 -0.29319053 4.37446717 -2 6 C-2.66 6 -3.32 6 -4 6 C-3.0022242 3.00667261 -2.2477975 2.05233685 0 0 Z " fill="#D6B874" transform="translate(192,298)"/>
<path d="M0 0 C1.32 0 2.64 0 4 0 C3.67 1.65 3.34 3.3 3 5 C1.68 4.67 0.36 4.34 -1 4 C-0.67 2.68 -0.34 1.36 0 0 Z " fill="#C2B164" transform="translate(311,278)"/>
<path d="M0 0 C0.99 0.33 1.98 0.66 3 1 C3.33 2.98 3.66 4.96 4 7 C1.525 6.01 1.525 6.01 -1 5 C-0.67 3.35 -0.34 1.7 0 0 Z " fill="#D0A437" transform="translate(287,203)"/>
<path d="M0 0 C2.64 0.33 5.28 0.66 8 1 C7.67 1.99 7.34 2.98 7 4 C4.69 3.34 2.38 2.68 0 2 C0 1.34 0 0.68 0 0 Z " fill="#DBB455" transform="translate(218,338)"/>
<path d="M0 0 C2.18975773 3.28463659 2.99806563 6.20696275 4 10 C3.01 9.67 2.02 9.34 1 9 C0.67 6.03 0.34 3.06 0 0 Z " fill="#D5BB77" transform="translate(198,331)"/>
<path d="M0 0 C2 2 2 2 2.125 4.625 C2.08375 5.40875 2.0425 6.1925 2 7 C0.68 7.33 -0.64 7.66 -2 8 C-1.34 5.36 -0.68 2.72 0 0 Z " fill="#D0B261" transform="translate(185,326)"/>
<path d="M0 0 C0.99 0.33 1.98 0.66 3 1 C2.1875 2.9375 2.1875 2.9375 1 5 C0.01 5.33 -0.98 5.66 -2 6 C-2.66 5.34 -3.32 4.68 -4 4 C-2.68 4 -1.36 4 0 4 C0 2.68 0 1.36 0 0 Z " fill="#D5BC7D" transform="translate(167,324)"/>
<path d="M0 0 C1.32 0 2.64 0 4 0 C3 2 3 2 1 3 C0.59270772 5.32156597 0.25561323 7.6568787 0 10 C-0.33 10 -0.66 10 -1 10 C-1.02689216 8.52093108 -1.04634621 7.04172517 -1.0625 5.5625 C-1.07410156 4.73878906 -1.08570313 3.91507812 -1.09765625 3.06640625 C-1 1 -1 1 0 0 Z " fill="#C7AB51" transform="translate(224,265)"/>
<path d="M0 0 C2.97 0.495 2.97 0.495 6 1 C5.67 2.32 5.34 3.64 5 5 C4.01 5 3.02 5 2 5 C1.34 3.35 0.68 1.7 0 0 Z " fill="#D1B55E" transform="translate(159,238)"/>
<path d="M0 0 C1.65 0 3.3 0 5 0 C5 1.32 5 2.64 5 4 C3.35 3.67 1.7 3.34 0 3 C0 2.01 0 1.02 0 0 Z " fill="#C49C46" transform="translate(258,240)"/>
<path d="M0 0 C1.98 0 3.96 0 6 0 C6.33 0.66 6.66 1.32 7 2 C6.401875 2.144375 5.80375 2.28875 5.1875 2.4375 C3.43849596 2.8872439 1.71322977 3.42892341 0 4 C0 2.68 0 1.36 0 0 Z " fill="#DDC26A" transform="translate(244,203)"/>
<path d="M0 0 C2.31 0.66 4.62 1.32 7 2 C6.67 2.66 6.34 3.32 6 4 C3.4375 4.625 3.4375 4.625 1 5 C0.67 3.35 0.34 1.7 0 0 Z " fill="#D3BD6A" transform="translate(244,177)"/>
</svg>
